<?xml version="1.0" encoding="iso-8859-1"?>
<!-- Generator: Adobe Illustrator 19.0.1, SVG Export Plug-In . SVG Version: 6.00 Build 0)  -->
<svg version="1.1" id="Layer_1" xmlns="http://www.w3.org/2000/svg" xmlns:xlink="http://www.w3.org/1999/xlink" x="0px" y="0px"
	 viewBox="0 0 250 210" style="enable-background:new 0 0 250 210;" xml:space="preserve">
<path style="fill:#2E18E8;" d="M32.812,169.5c-3.186-19.355-3.75-40.75-3.75-40.75s-0.578-21.92,1.75-39.5
	c0.182-1.375,0.625-4.431,2.865-7.119c3.736-4.482,9.986-5.089,12.635-5.131c22.962-0.364,45.944-0.118,68.908-0.094
	c17.928,0.019,35.855,0.049,53.783,0.088c1.81,0.004,3.658,0.014,5.373,0.594c2.694,0.911,4.738,3.115,6.429,5.401
	c5.383,7.276,8.626,15.917,11.181,24.526c2.492,8.399,3.214,16.494,10.757,22.042c3.966,2.917,8.503,5.039,12.236,8.249
	c5.248,4.513,6.756,11.869,6.835,18.482c0.069,5.786-0.113,16.266-5.566,19.776c-2.245,1.445-5.033,1.754-7.703,1.732
	c-40.886-0.329-81.833,0.607-122.739,0.476c-0.416-0.001-0.831-0.003-1.247-0.004c-9.918-0.033-18.766-0.036-24.299-0.037
	c-18.697-0.004-22.498,0.025-25.198-3.231C33.418,173.017,33.033,170.843,32.812,169.5z"/>
<path style="fill:#FA402A;" d="M181.957,90.252c5.743,1.499,7.593,6.334,9.441,11.433c2.308,6.366,5.567,14.197,5.876,21.021
	c0.205,4.543-3.593,5.72-7.437,5.737c-6.057,0.027-12.114,0.053-18.171,0.08c-16.306,0.072-14.901-21.741-14.068-32.832
	c0.555-7.383,9.609-6.647,15.086-6.36C176.004,89.506,179.183,89.528,181.957,90.252z"/>
<path style="fill:#FFFFFF;" d="M70.312,161c0,0-16,1-15,17s16,16,16,16s16-2.5,16-17S70.312,161,70.312,161z"/>
<path style="fill:#FFFFFF;" d="M181.312,161c0,0-16.75,2.5-16,17s16,16,16,16s15.25-1.25,16-16S181.312,161,181.312,161z"/>
<g id="clock">
	<path style="fill:#2E18E8;" d="M57.362,53.718c0.269,0.118,0.553,0.207,0.855,0.258c1.774,0.303,4.815-1.577,4.104-3.748
		c-0.112-0.341-0.364-0.615-0.622-0.864c-1.48-1.424-4.667-2.362-4.995-4.691c-0.366-2.593,5.519-5.637,1.656-8.08
		c-0.794-0.502-1.847-0.378-2.704,0.007c-1.759,0.792-3.304,2.18-4.683,3.499c-1.792,1.715-8.825,7.917-5.66,10.731
		c0.482,0.428,1.351,0.235,1.89,0.092c2.152-0.571,2.968-2.123,5.384-0.984C54.351,50.772,55.528,52.916,57.362,53.718z"/>
	<path style="fill:#2E18E8;" d="M105.338,49.796c1.507-1.182,3.015-2.365,4.522-3.547c0.405-0.318,0.824-0.653,1.039-1.121
		c0.9-1.959-1.745-3.639-1.582-5.574c0.216-2.57,3.136-3.561,5.175-2.498c2.15,1.12,3.662,3.289,5.15,5.129
		c1.575,1.947,3.843,3.852,4.413,6.404c0.24,1.075,0.085,2.279-0.61,3.136c-0.649,0.8-1.546,1.165-2.568,0.848
		c-1.918-0.596-2.982-2.751-5.108-2.825c-1.019-0.036-2.008,0.411-2.809,1.042c-0.33,0.26-3.848,3.793-3.649,4.043
		C108.025,53.222,106.335,51.604,105.338,49.796z"/>
	<path style="fill:none;stroke:#2E18E8;stroke-width:5;stroke-miterlimit:10;" d="M75.388,25.872
		c1.62-3.068,5.647-4.904,8.924-5.041c6-0.25,9.167,4.5,10,8c0.833,3.5-1.5,11.917-10,12c-7.4,0.073-11.377-7.024-9.406-13.775
		C75.027,26.644,75.19,26.249,75.388,25.872z"/>
	<path style="fill:#FFFFFF;" d="M83.966,41.354C68.269,41.39,53.615,51.093,47.6,65.694c-6.417,15.575-1.932,36.323,12.205,46.197
		c25.555,17.848,61.285,0.087,62.142-31.004c0.009-0.352,0.015-0.703,0.018-1.056c0.107-15.563-8.661-29.337-23.112-35.47
		C94.017,42.309,88.976,41.343,83.966,41.354z"/>
	<path style="fill:#FFFFFF;" d="M80.729,35.415c0.15-2.395,0.391-3.001,0.799-3.482c0.523-0.616,1.169-0.847,1.502-0.966
		c1.126-0.403,2.759-0.411,3.699,0.531c0.225,0.226,0.4,0.496,0.703,1.374c0.441,1.277,0.745,2.157,0.845,3.761
		c0.206,3.297,0.487,7.808-1.966,9.199c-1.175,0.666-2.96,0.607-4-0.25c-0.494-0.407-0.675-0.876-1-1.75
		c-0.214-0.575-0.634-1.866-0.667-5.667C80.644,38,80.637,36.889,80.729,35.415z"/>
	<path style="fill:#2E18E8;" d="M84.922,72.514c-4.812-0.976-8.881,2.044-9.241,7.066c-0.342,4.761,3.372,9.13,8.256,8.726
		c5.133-0.425,8.737-6.266,6.809-11.032c-0.94-2.323-3.062-4.131-5.504-4.69C85.135,72.559,85.029,72.536,84.922,72.514z"/>
	<path style="fill:#2E18E8;" d="M93.443,57.679c0,0,2.742-5.633,4.81-4.227s0.708,4.472-0.675,7.039
		c-1.383,2.567-11.109,19.535-11.109,19.535l0,0c0,0-3.838-1.213-5.133-2.766L93.443,57.679z"/>
	<path style="fill:#4248F0;" d="M83.729,48.915c-0.89,0.141-1.786,0.007-2.525,0.643c-0.554,0.476-0.829,1.213-0.894,1.941
		c-0.12,1.337,0.069,4.004,1.094,5.022c0.471,0.468,1.171,0.626,1.836,0.648c1.79,0.06,3.967,0.145,4.656-1.895
		C88.958,52.129,87.656,48.293,83.729,48.915z"/>
	<path style="fill:#4248F0;" d="M68.479,53.832c-0.508,0.414-1.593,1.296-1.667,2.667c-0.064,1.191,0.672,2.064,1.25,2.75
		c0.55,0.652,1.383,1.641,2.667,1.833c1.777,0.266,3.829-1.081,4.393-3.009c0.698-2.381-1.062-5.012-3.161-5.411
		C70.304,52.347,68.879,53.506,68.479,53.832z"/>
	<path style="fill:#4248F0;" d="M58.645,63.415c0.331-0.295,0.995-0.886,2-1c1.339-0.152,2.348,0.649,3,1.167
		c0.663,0.526,1.875,1.489,1.833,2.833c-0.023,0.721-0.396,1.233-0.833,1.833c-0.436,0.598-1.155,1.585-2.5,1.917
		c-1.467,0.361-2.676-0.305-3-0.5c-0.23-0.138-1.939-1.206-2-3.167C57.092,64.799,58.318,63.707,58.645,63.415z"/>
	<path style="fill:#4248F0;" d="M54.03,76.129c-0.613,0.605-0.845,1.534-0.884,2.786c-0.043,1.378,0.128,3.165,1.371,4.009
		c1.217,0.825,3.226,0.849,4.583,0.426c2.29-0.714,1.86-2.779,1.776-4.771c-0.055-1.306-0.171-2.408-1.474-2.955
		c-1.016-0.426-2.264-0.415-3.342-0.303C55.13,75.417,54.478,75.686,54.03,76.129z"/>
	<path style="fill:#4248F0;" d="M60.145,88.832c0.542-0.26,1.165-0.559,2-0.5c1.499,0.106,2.439,1.278,2.75,1.667
		c0.395,0.493,1.203,1.5,1.039,2.767c-0.159,1.231-1.138,1.95-2.205,2.733c-0.784,0.575-1.588,1.166-2.667,1.083
		c-0.8-0.061-1.361-0.463-1.75-0.75c-0.42-0.309-2.45-1.911-2.083-4C57.535,90.085,59.301,89.237,60.145,88.832z"/>
	<path style="fill:#4248F0;" d="M67.562,99.415c0.312-0.325,1.007-1.031,2.167-1.333c0.35-0.091,1.198-0.301,2.167,0
		c1.37,0.426,2.521,1.728,2.667,3.25c0.131,1.375-0.61,2.385-1,2.917c-0.356,0.485-1.407,1.917-3.09,2.039
		c-2.146,0.155-4.314-1.894-4.326-3.956C66.137,100.9,67.171,99.823,67.562,99.415z"/>
	<path style="fill:#4248F0;" d="M80.729,109.582c-1.148-1.006-1.042-2.726-1-3.417c0.042-0.682,0.16-2.6,1.75-3.667
		c1.376-0.923,3.402-0.904,4.632,0.17c0.97,0.847,1.202,2.036,1.202,3.163c0,1.555-0.086,2.766-0.812,3.449
		c-0.333,0.314-0.682,0.404-1.188,0.55C84.24,110.142,82.082,110.767,80.729,109.582z"/>
	<path style="fill:#4248F0;" d="M103.974,69.18c-0.542-0.575-0.924-1.523-0.948-2.49c-0.006-0.243-0.002-0.947,0.349-1.733
		c0.702-1.573,2.593-3.027,4.313-2.625c0.783,0.183,1.268,0.689,1.625,1.063c0.975,1.018,2.204,3.186,1.313,4.937
		C109.483,70.575,105.527,70.828,103.974,69.18z"/>
	<path style="fill:#4248F0;" d="M106.321,78.832c0.168-1.691,1.031-3.185,2.323-3c2.328,0.333,4.268-0.667,4.656,3
		c0.252,2.378,0.118,3.373-2.778,4.146C107.28,83.844,106.088,81.172,106.321,78.832z"/>
	<path style="fill:#4248F0;" d="M103.223,90.759c0.477-0.625,0.969-1.27,1.839-1.593c1.18-0.439,2.294-0.004,2.667,0.167
		c1.62,0.743,2.062,2.375,2.117,2.595c0.413,1.63-0.378,2.914-0.534,3.155c-0.163,0.253-1.196,1.792-3,1.833
		c-1.303,0.03-2.197-0.739-2.5-1c-0.933-0.804-1.771-2.249-1.442-3.637C102.509,91.695,102.811,91.298,103.223,90.759z"/>
	<path style="fill:#4248F0;" d="M95.312,98.832c1.186-0.762,2.635-0.134,3.389,0.898c0.404,0.553,0.667,1.195,0.917,1.833
		c0.75,1.918-0.21,4.17-2.232,4.792c-1.934,0.594-4.417-1.065-4.775-3.03C92.253,101.356,93.786,99.813,95.312,98.832z"/>
</g>
<path style="fill:#FA402A;" d="M181.288,170.03c0,0-7.584,1.132-7.244,7.697c0.34,6.565,7.244,7.244,7.244,7.244
	s6.904-0.566,7.244-7.244C188.871,171.048,181.288,170.03,181.288,170.03z"/>
<path style="fill:#FA402A;" d="M70.906,170.268c0,0-7.013,0.438-6.574,7.451c0.438,7.013,7.013,7.013,7.013,7.013
	s7.013-1.096,7.013-7.451C78.357,170.926,70.906,170.268,70.906,170.268z"/>
<path style="fill:#FA402A;" d="M221.393,148.718c-1.593-0.536-3.659,1.603-4.25,2.868c-0.731,1.564-0.832,3.343-0.83,5.07
	c0.006,3.873-0.88,8.469,1.099,12.042c2.774,5.009,4.598-4.091,4.881-5.684c0.732-4.11,0.992-8.532,0.31-12.67
	c-0.056-0.339-0.125-0.69-0.334-0.963C222.006,149.036,221.709,148.824,221.393,148.718z"/>
</svg>
