<?xml version="1.0" encoding="iso-8859-1"?>
<!-- Generator: Adobe Illustrator 19.0.1, SVG Export Plug-In . SVG Version: 6.00 Build 0)  -->
<svg version="1.1" id="Layer_1" xmlns="http://www.w3.org/2000/svg" xmlns:xlink="http://www.w3.org/1999/xlink" x="0px" y="0px"
	 viewBox="0 0 1440 410" style="enable-background:new 0 0 1440 410;" xml:space="preserve">
<rect x="-10.68" y="-9.5" style="fill:#FA4E40;" width="1461.36" height="429"/>
<path style="fill:#FA402A;" d="M1240.228,89.799c6.282-5.26,12.933-9.679,20.217-10.376c11.651-1.113,20.704,10.008,27.958,17.466
	c8.293,8.526,18.214,13.909,28.999,18.85c11.488,5.263,23.372,10.322,35.563,13.604c12.465,3.356,34.196-0.668,42.432,11.348
	c2.83,4.13,3.725,9.257,4.306,14.229c7.128,60.978-1.347,131.884-39.332,182.13c-25.212,33.35-53.484,45.539-59.737,48.342
	c-11.433,5.125-23.162,9.654-35.728,10.921c-15.159,1.528-27.482-2.207-40.948-8.772c-22.704-11.069-43.058-26.955-59.245-46.35
	c-17.828-21.361-26.627-49.828-32.966-76.468c-5.045-21.2-8.548-42.767-10.483-64.473c-1.541-17.29-5.932-43.25,6.834-57.649
	c6.548-7.385,19.914-7.844,29.05-10.467c12.454-3.575,24.922-7.48,36.783-12.697c9.145-4.045,19.018-8.063,27.377-13.596
	C1227.412,101.802,1233.616,95.335,1240.228,89.799z"/>
<path style="fill:#FA402A;" d="M802.333,292.039c-1.497-1.78-4.916-5.85-9.861-6.189c-4.081-0.279-7.545,2.096-9.018,3.106
	c-1.407,0.965-4.865,3.336-6.169,7.249c-1.626,4.881,0.888,9.79,2.742,13.007c7.738,13.426,19.52,23.836,21.576,26.087
	c12.989,14.227,27.186,27.252,41.47,40.145c7.09,6.4,12.072,7.718,17.111,8.04c14.784,0.945,25.565-13.268,42.392-31.825
	c5.728-6.316,17.931-18.324,42.339-42.339c0.001,0,35.787-35.213,87.351-92.805c1.12-1.252,3.769-4.227,3.734-8.184
	c-0.042-4.725-4.02-8.818-8.951-12.924c-2.036-1.696-4.478-3.311-7.113-3.029c-2.004,0.214-3.714,1.491-5.279,2.761
	c-22.621,18.361-42.076,42.051-62.477,62.826c-24.225,24.669-47.697,50.367-73.059,73.872c-4.364,4.044-9.043,8.136-14.802,9.631
	c-10.661,2.766-21.518-4.213-28.679-12.581C831.478,324.025,824.425,318.303,802.333,292.039z"/>
<path style="fill:#FA402A;" d="M155.228-51.201c6.282-5.26,12.933-9.679,20.217-10.376c11.65-1.113,20.704,10.008,27.957,17.466
	c8.293,8.526,18.213,13.909,28.999,18.85c11.487,5.263,23.372,10.322,35.563,13.604c12.465,3.356,34.196-0.668,42.432,11.348
	c2.83,4.13,3.725,9.257,4.306,14.229c7.128,60.978-1.347,131.884-39.332,182.13c-25.212,33.35-53.483,45.539-59.737,48.342
	c-11.433,5.125-23.162,9.654-35.728,10.921c-15.159,1.528-27.482-2.207-40.949-8.772c-22.704-11.069-43.058-26.955-59.245-46.35
	c-17.828-21.361-26.627-49.828-32.966-76.468c-5.045-21.2-8.548-42.767-10.483-64.473c-1.541-17.29-5.932-43.25,6.834-57.649
	c6.548-7.385,19.914-7.844,29.05-10.467c12.454-3.575,24.922-7.48,36.783-12.697c9.145-4.045,19.018-8.063,27.378-13.596
	C142.412-39.198,148.616-45.665,155.228-51.201z"/>
<path style="fill:#FA402A;" d="M522.953,247.799c6.282-5.26,12.933-9.679,20.217-10.376c11.65-1.113,20.703,10.008,27.957,17.466
	c8.293,8.526,18.213,13.909,28.999,18.85c11.487,5.263,23.372,10.322,35.563,13.604c12.465,3.356,34.196-0.668,42.432,11.348
	c2.83,4.13,3.725,9.257,4.306,14.229c7.128,60.978-1.347,131.884-39.332,182.13c-25.212,33.35-53.483,45.539-59.737,48.342
	c-11.433,5.125-23.162,9.654-35.728,10.921c-15.159,1.528-27.482-2.207-40.949-8.772c-22.704-11.069-43.058-26.955-59.245-46.35
	c-17.828-21.361-26.627-49.828-32.966-76.468c-5.045-21.2-8.548-42.767-10.483-64.473c-1.541-17.29-5.932-43.25,6.834-57.649
	c6.548-7.385,19.914-7.844,29.05-10.467c12.454-3.575,24.922-7.48,36.783-12.697c9.145-4.045,19.018-8.063,27.378-13.596
	C510.137,259.802,516.341,253.335,522.953,247.799z"/>
<path style="fill:#FA402A;" d="M881.228-134.201c6.282-5.26,12.933-9.679,20.217-10.376c11.65-1.113,20.703,10.008,27.957,17.466
	c8.293,8.526,18.214,13.909,28.999,18.85c11.487,5.263,23.372,10.322,35.563,13.604c12.465,3.356,34.196-0.668,42.432,11.348
	c2.83,4.13,3.725,9.257,4.306,14.229c7.128,60.978-1.347,131.884-39.332,182.13c-25.212,33.35-53.483,45.539-59.737,48.342
	c-11.433,5.125-23.162,9.654-35.728,10.921c-15.159,1.528-27.482-2.207-40.948-8.772c-22.704-11.069-43.058-26.955-59.245-46.35
	c-17.828-21.361-26.627-49.828-32.966-76.468c-5.045-21.2-8.549-42.767-10.483-64.473c-1.541-17.29-5.932-43.25,6.834-57.649
	c6.548-7.385,19.914-7.844,29.05-10.467c12.454-3.575,24.922-7.48,36.783-12.697c9.145-4.045,19.018-8.063,27.378-13.596
	C868.412-122.198,874.616-128.665,881.228-134.201z"/>
<path style="fill:#FA402A;" d="M436.571,84.039c-1.497-1.78-4.916-5.85-9.861-6.189c-4.081-0.279-7.546,2.096-9.018,3.106
	c-1.407,0.965-4.865,3.336-6.169,7.249c-1.626,4.881,0.889,9.791,2.742,13.007c7.738,13.426,19.52,23.836,21.575,26.087
	c12.989,14.227,27.186,27.252,41.47,40.145c7.09,6.4,12.072,7.718,17.111,8.04c14.784,0.945,25.565-13.268,42.392-31.825
	c5.728-6.316,17.931-18.324,42.339-42.339c0,0,35.787-35.213,87.351-92.805c1.12-1.252,3.769-4.227,3.734-8.184
	c-0.042-4.725-4.02-8.818-8.951-12.924c-2.036-1.696-4.478-3.311-7.113-3.029c-2.004,0.214-3.714,1.491-5.279,2.761
	c-22.621,18.361-42.076,42.051-62.477,62.826c-24.225,24.669-47.697,50.367-73.059,73.872c-4.364,4.045-9.043,8.136-14.802,9.631
	c-10.661,2.766-21.518-4.213-28.679-12.581C465.716,116.025,458.662,110.303,436.571,84.039z"/>
<path style="fill:#4248F0;" d="M-2,432.346c61.083,0.494,122.166,0.988,183.249,1.482c62.718,0.507,126.013,3.549,188.7,1.163
	c-12.166-32.578-41.556-56.344-73.665-69.699c-42.612-17.722-94.354-24.197-140.304-25.053c-21.181-0.395-42.562,2.145-63.639-0.862
	c-20.41-2.912-40.054-12.035-59.617-18.35C16.627,315.831-0.155,309.753-17,307.346l1,123L-2,432.346z"/>
<path style="fill:#4248F0;" d="M1318-43.654c0,0-44,68,172,110s-34-128-34-128L1318-43.654z"/>
</svg>
