<?xml version="1.0" encoding="iso-8859-1"?>
<!-- Generator: Adobe Illustrator 19.0.1, SVG Export Plug-In . SVG Version: 6.00 Build 0)  -->
<svg version="1.1" id="Layer_1" xmlns="http://www.w3.org/2000/svg" xmlns:xlink="http://www.w3.org/1999/xlink" x="0px" y="0px"
	 viewBox="0 0 250 210" style="enable-background:new 0 0 250 210;" xml:space="preserve">
<path style="fill:#2E18E8;" d="M72.382,28.28c0,0-29.587-3.082-29.587,51.777s-6.862,91.584,19.724,92.15
	c43.455,0.925,128.209,9.554,128.209-25.58c0-35.464,0-85.062,0-85.062s6.652-31.201-40.682-33.285
	C101.044,26.123,72.382,28.28,72.382,28.28z"/>
<path style="fill:#FA402A;" d="M91.626,35.557c0.011-0.054,0.022-0.108,0.034-0.162c0.821-3.925,2.022-7.612,5.59-9.901
	c4.635-2.985,10.702-2.462,15.968-2.455c6.61,0.008,13.301-0.023,19.809,1.3c2.131,0.433,4.293,1.04,6.02,2.362
	c2.015,1.543,3.244,3.934,3.854,6.397c0.682,2.753,0.489,5.599,0.965,8.355c0.514,2.98,0.825,6.058,1.013,9.075
	c0.332,5.344,0.038,10.854-2.695,15.586c-2.689,4.655-9.136,6.304-14.135,6.744c-5.45,0.479-11.042,0.117-16.481,0.027
	c-5.512-0.091-10.328-0.249-15.386-2.815c-2.277-1.155-4.534-2.564-5.943-4.693c-2.993-4.524-1.563-10.84-0.938-15.837
	C89.886,44.849,90.663,40.184,91.626,35.557z"/>
<path style="fill:#FFFFFF;" d="M166.305,96.14c1.887-1.58,3.885-2.907,6.072-3.116c3.499-0.334,6.219,3.006,8.397,5.246
	c2.491,2.561,5.471,4.178,8.71,5.662c3.45,1.581,7.02,3.1,10.682,4.086c3.744,1.008,10.271-0.201,12.745,3.409
	c0.85,1.24,1.119,2.78,1.293,4.274c2.141,18.316-0.405,39.613-11.814,54.706c-7.573,10.017-16.065,13.678-17.943,14.52
	c-3.434,1.539-6.957,2.9-10.731,3.28c-4.553,0.459-8.255-0.663-12.3-2.635c-6.82-3.325-12.933-8.096-17.795-13.922
	c-5.355-6.416-7.998-14.967-9.902-22.968c-1.515-6.368-2.568-12.846-3.149-19.365c-0.463-5.193-1.782-12.991,2.053-17.316
	c1.967-2.218,5.982-2.356,8.726-3.144c3.741-1.074,7.486-2.247,11.048-3.814c2.747-1.215,5.712-2.422,8.223-4.084
	C162.456,99.745,164.319,97.803,166.305,96.14z"/>
<path style="fill:#4248F0;" d="M156.949,143.294c-0.29-0.345-0.951-1.132-1.908-1.198c-0.79-0.054-1.46,0.406-1.745,0.601
	c-0.272,0.187-0.942,0.646-1.194,1.403c-0.315,0.945,0.172,1.895,0.531,2.517c1.498,2.598,3.778,4.613,4.176,5.049
	c2.514,2.753,5.261,5.274,8.026,7.769c1.372,1.239,2.336,1.494,3.312,1.556c2.861,0.183,4.948-2.568,8.204-6.159
	c1.109-1.222,3.47-3.546,8.194-8.194c0,0,6.926-6.815,16.905-17.961c0.217-0.242,0.729-0.818,0.723-1.584
	c-0.008-0.914-0.778-1.707-1.732-2.501c-0.394-0.328-0.867-0.641-1.377-0.586c-0.388,0.041-0.719,0.289-1.022,0.534
	c-4.378,3.553-8.143,8.138-12.091,12.159c-4.688,4.774-9.231,9.748-14.139,14.297c-0.845,0.783-1.75,1.575-2.865,1.864
	c-2.063,0.535-4.164-0.815-5.55-2.435C162.589,149.484,161.224,148.377,156.949,143.294z"/>
</svg>
