<?xml version="1.0" encoding="iso-8859-1"?>
<!-- Generator: Adobe Illustrator 19.0.1, SVG Export Plug-In . SVG Version: 6.00 Build 0)  -->
<svg version="1.1" id="Layer_1" xmlns="http://www.w3.org/2000/svg" xmlns:xlink="http://www.w3.org/1999/xlink" x="0px" y="0px"
	 viewBox="0 0 130 210" style="enable-background:new 0 0 130 210;" xml:space="preserve">
<g style="display:none;">
	<path style="display:inline;fill:#1E1F23;" d="M132.451,117.234c-0.035-0.058-0.07-0.115-0.107-0.171
		c-4.642,2.172-7.715,7.167-9.232,12.427c-2.084,7.229-3.386,11.912-10.417,14.479c-5.372,1.961-11.091,2.893-16.725,3.06
		c-4.223,0.126-12.118,0.864-14.8-3.776c-1.534-2.654-0.802-5.635-0.142-8.46c2.776-11.87-1.234-11.172-1.234-11.172
		S60.98,132.698,48.95,132c0,0-6.166-1.396-6.169-1.396c5.706,1.292,14.005,11.03,15.726,16.976
		c1.697,5.864-1.129,15.533,4.213,19.529c1.436,1.074,3.177,1.467,4.874,1.793c10.94,2.106,22.196,0.788,33.074,3.336
		c5.542,1.298,11.993,3.747,15.984,8.521c5.578,6.671,5.742,16.651,10.835,23.677c2.359,3.255,5.363,3.836,5.373-1.128
		c0.031-14.71,0.062-29.42,0.092-44.13c0.015-7.211,0.03-14.422,0.045-21.634C133.01,131.718,135.546,122.359,132.451,117.234z"/>
	<path style="display:inline;fill:#2E18E8;" d="M2.304,48.212c-0.001-0.007-5.583-33.865,23.74-43.29
		C55.365-4.503,69.33,7.71,69.335,7.715c12.681,11.094,17.313,30.966,19.63,46.936c4.058,27.964,12.885,75.148-26.416,81.353
		c-11.814,1.865-27.179-1.312-35.406-10.431c-8.284-9.182-11.987-20.814-15.391-32.472C7.454,78.384,4.795,63.318,2.304,48.212z"/>
	<path style="display:inline;fill:#1E1F23;" d="M67.843,130.633c-7.747,1.195-13.926,0.817-16.774,0.557
		c-0.526-0.048-0.963-0.094-1.266-0.128c0,0-4.679-0.576-9.449-2.362C23.883,122.532,7.377,87.72,5.433,49.361
		c-0.399-7.874-1.802-22.562,3.138-32.548c-0.612,1.238-3.522,5.86-4.51,8.161c-2.101,4.894-2.583,9.034-2.792,10.952
		C0.018,47.432,3.501,64.488,4.061,67.173c1.582,7.583,3.68,16.843,6.443,27.381c1.578,5.042,4.224,12.197,8.698,20.187
		c3.367,6.014,5.075,9.008,7.839,11.811c11.685,11.854,29.158,10.746,34.361,10.416c7.825-0.496,11.887-2.646,13.959-3.973
		c3.119-1.997,5.19-4.345,6.443-6.013C76.421,128.994,71.611,130.052,67.843,130.633z"/>
	<path style="display:inline;fill:#1E1F23;" d="M60.866,19.055c-0.45-0.313-0.911-0.611-1.384-0.894
		c-9.834-5.881-23.093-4.499-33.411-0.671c-10.45,3.877-14.076,15.026-14.325,25.303C11.394,57.25,14.813,72.562,18.58,86.46
		c2.844,10.491,6.591,24.898,16.673,30.754c12.225,7.1,34.131,1.998,41.982-9.694c5.961-8.877,6.218-21.136,4.695-31.378
		c-1.927-12.96-4.278-26.401-8.554-38.818C70.934,30.228,66.984,23.311,60.866,19.055z"/>
	<path style="display:inline;fill:#2E18E8;" d="M55.138,73.231c-5.077,0.345-8.863,1.323-9.961,1.618
		c-8.899,2.389-16.821,4.516-19.697,10.718c-4.008,8.645,3.167,22.228,12.858,27.231c3.864,1.995,7.368,2.234,9.711,2.369
		c2.58,0.149,14.564,0.488,23.11-9.002c1.692-1.879,8.78-9.75,6.936-19.672c-0.295-1.589-1.62-7.538-6.598-11.05
		C67.202,72.411,62.374,72.739,55.138,73.231z"/>
	<path style="display:inline;fill:#2E18E8;" d="M45.81,32.851c-5.519-1.575-12.011,0.197-15.323,4.664
		c-1.519,2.049-1.966,4.072-2.133,5.113c-0.968,6.003,1.037,11.855,5.531,14.575c2.71,1.64,5.486,1.517,8.207,1.413
		c2.915-0.111,6.804-0.26,10.002-3.073c3.397-2.988,4.807-7.921,3.886-12.338C54.363,35.441,46.322,32.997,45.81,32.851z"/>
	<path style="display:inline;fill:#FA4E40;" d="M42.029,37.475c-4.633-0.112-9.327,2.619-8.647,8.079
		c0.796,6.39,7.39,11.321,13.419,7.178C53.801,47.921,50.117,37.671,42.029,37.475z"/>
	
		<path style="display:inline;fill:none;stroke:#FA4E40;stroke-width:8;stroke-linecap:round;stroke-linejoin:round;stroke-miterlimit:10;" d="
		M35.814,98.958c0,0,5.948,7.372,18.897,6.11c13.42-1.307,16.568-14.38,16.568-14.38"/>
</g>
<path style="fill:#1E1F23;" d="M2.304,49.93c-0.001-0.007-5.583-33.865,23.74-43.29C55.365-2.785,69.33,9.428,69.335,9.433
	c12.681,11.094,17.313,30.966,19.63,46.936c4.058,27.964,12.885,75.148-26.416,81.353c-11.814,1.865-27.179-1.312-35.406-10.431
	c-8.284-9.182-11.987-20.814-15.391-32.472C7.454,80.102,4.795,65.036,2.304,49.93z"/>
<path style="display:none;fill:#1E1F23;" d="M67.843,132.351c-7.747,1.195-13.926,0.817-16.774,0.557
	c-0.526-0.048-0.963-0.094-1.266-0.128c-2.38-0.227-5.753-0.795-9.449-2.362c-15.039-6.377-20.53-22.979-27.703-44.669
	C11.59,82.54,4.739,61.361,5.779,41.725c0.383-7.231,1.702-11.727,2.362-13.744c3.397-10.386,9.191-15.82,8.59-16.321
	c-0.659-0.549-8.453,5.291-12.67,15.033c-1.137,2.626-2.236,5.84-2.792,10.952C0.018,49.15,3.501,66.206,4.061,68.891
	c1.582,7.583,3.68,16.843,6.443,27.381c1.578,5.042,4.224,12.197,8.698,20.187c3.367,6.014,5.075,9.008,7.839,11.811
	c11.685,11.854,29.158,10.746,34.361,10.416c7.825-0.496,11.887-2.646,13.959-3.973c3.119-1.997,5.19-4.345,6.443-6.013
	C76.421,130.712,71.611,131.77,67.843,132.351z"/>
<path style="fill:#FFFFFF;stroke:#1E1F23;stroke-width:2;stroke-miterlimit:10;" d="M60.866,20.773
	c-0.45-0.313-0.911-0.611-1.384-0.894c-9.834-5.881-23.093-4.499-33.411-0.671c-10.45,3.877-14.076,15.026-14.325,25.303
	c-0.351,14.457,3.068,29.769,6.835,43.667c2.844,10.491,6.591,24.898,16.673,30.754c12.225,7.1,34.131,1.998,41.982-9.694
	c5.961-8.877,6.218-21.136,4.695-31.378c-1.927-12.96-4.278-26.401-8.554-38.818C70.934,31.946,66.984,25.029,60.866,20.773z"/>
<path style="fill:#1E1F23;" d="M55.138,74.949c-5.077,0.345-8.863,1.323-9.961,1.618c-8.899,2.389-16.821,4.516-19.697,10.718
	c-4.008,8.645,3.167,22.228,12.858,27.231c3.864,1.995,7.368,2.234,9.711,2.369c2.58,0.149,14.564,0.488,23.11-9.002
	c1.692-1.879,8.78-9.75,6.936-19.672c-0.295-1.589-1.62-7.538-6.598-11.05C67.202,74.129,62.374,74.457,55.138,74.949z"/>
<path style="fill:#1E1F23;" d="M45.81,34.569c-5.519-1.575-12.011,0.197-15.323,4.664c-1.519,2.049-1.966,4.072-2.133,5.113
	c-0.968,6.003,1.037,11.855,5.531,14.575c2.71,1.64,5.486,1.517,8.207,1.413c2.915-0.111,6.804-0.26,10.002-3.073
	c3.397-2.988,4.807-7.921,3.886-12.338C54.363,37.159,46.322,34.715,45.81,34.569z"/>
<path style="fill:#FA4E40;" d="M42.029,39.193c-4.633-0.112-9.327,2.619-8.647,8.079c0.796,6.39,7.39,11.321,13.419,7.178
	C53.801,49.639,50.117,39.389,42.029,39.193z"/>
<path style="fill:none;stroke:#FFFFFF;stroke-width:5;stroke-linecap:round;stroke-linejoin:round;stroke-miterlimit:10;" d="
	M35.814,100.676c0,0,5.948,7.372,18.897,6.11c13.42-1.307,16.568-14.38,16.568-14.38"/>
<path style="fill:#1E1F23;" d="M130.693,119.713c-3.728,2.481-6.252,6.886-7.581,11.495c-2.084,7.229-3.386,11.912-10.417,14.479
	c-5.372,1.961-11.091,2.893-16.725,3.06c-4.223,0.125-12.118,0.864-14.8-3.776c-1.534-2.654-0.802-5.635-0.142-8.46
	c2.776-11.87-1.234-11.172-1.234-11.172s-18.815,9.077-30.845,8.379c0,0-6.166-1.396-6.169-1.396
	c5.706,1.292,14.005,11.03,15.727,16.976c1.697,5.864-1.129,15.533,4.213,19.529c1.436,1.074,3.177,1.467,4.874,1.793
	c10.94,2.106,22.196,0.788,33.074,3.336c5.542,1.298,11.993,3.747,15.984,8.521c5.578,6.672,5.742,16.651,10.835,23.677
	c1.048,1.446,2.223,2.36,3.206,2.499V119.713z"/>
</svg>
