<?xml version="1.0" encoding="iso-8859-1"?>
<!-- Generator: Adobe Illustrator 19.0.1, SVG Export Plug-In . SVG Version: 6.00 Build 0)  -->
<svg version="1.1" id="Layer_1" xmlns="http://www.w3.org/2000/svg" xmlns:xlink="http://www.w3.org/1999/xlink" x="0px" y="0px"
	 viewBox="0 0 210 210" style="enable-background:new 0 0 210 210;" xml:space="preserve">
<path style="fill:#1E1F23;" d="M46.195,98.75l27.122-13.949l10.849,22.319c-14.088,12.222-16.334,21.016-15.524,26.944
	c1.15,8.428,8.875,14.007,6.868,16.925c-1.776,2.583-9.762,1.02-14.718-1.717C43.202,139.555,45.671,105.022,46.195,98.75z"/>
<path style="fill:#2E18E8;" d="M54.488,53.391c0,0-8.004-19.654-47.446-22.823c0,0,33.808-35.568,90.154-20.426
	c22.172,5.959,45.552,22.447,54.172,44.697c8.953,23.111-5.801,49.996,8.866,72.221c-0.449-0.681-2.647-1.441-3.356-1.939
	c-2.983-2.1-5.454-4.945-7.483-7.953c-3.432-5.089-5.606-10.956-7.005-16.903c-2.437-10.366-3.147-18.657-9.162-29.213
	c-6.01-10.548-9.26-10.425-17.661-12.51c-9.61-2.385-18.808-11.431-28.583-13.184L54.488,53.391z"/>
<path style="fill:#1E1F23;" d="M55.992,200.311c1.823-7.476,10.546-39.715,40.617-55.642c14.243-7.544,27.393-8.313,35.217-8.687
	c35.245-1.684,62.112,15.909,73.133,24.182c-11.506-2.592-27.733-4.072-46.794-1.805c-26.28,3.125-58.327,14.307-81.394,46.53
	c-0.675-1.649-1.324-3.674-1.717-6.031c-0.935-5.607,0.044-10.306,0.898-13.13c-1.852,0.92-3.775,1.974-5.74,3.182
	C64.282,192.555,59.601,196.605,55.992,200.311z"/>
<path style="fill:#1E1F23;" d="M61.627,65.08l-8.452-14.087c3.347-1.687,27.132-13.304,47.895-5.635
	c6.613,2.443,16.083,8.011,24.358,15.546c2.385,2.172,4.246,4.121,5.519,5.519c-3.385,3.308-6.77,6.617-10.156,9.925L61.627,65.08z"
	/>
<linearGradient id="SVGID_1_" gradientUnits="userSpaceOnUse" x1="46.3726" y1="83.9133" x2="157.0203" y2="126.387">
	<stop  offset="0.5376" style="stop-color:#1E1F23"/>
	<stop  offset="0.5993" style="stop-color:#222337"/>
	<stop  offset="0.7261" style="stop-color:#2B2E6D"/>
	<stop  offset="0.9056" style="stop-color:#3A3FC1"/>
	<stop  offset="1" style="stop-color:#4248F0"/>
</linearGradient>
<path style="fill:url(#SVGID_1_);" d="M50.358,73.532c0,0,15.847-30.286,53.529-14.087c0,0,26.412,11.621,28.173,42.26
	c1.761,30.638,22.539,30.991,22.539,30.991s-20.426,18.313-61.981,14.087S89.8,96.07,89.8,96.07L50.358,73.532z"/>
<linearGradient id="SVGID_2_" gradientUnits="userSpaceOnUse" x1="21.5834" y1="164.4439" x2="89.2568" y2="83.7939">
	<stop  offset="0.2419" style="stop-color:#4248F0"/>
	<stop  offset="0.6982" style="stop-color:#2C2F72"/>
	<stop  offset="1" style="stop-color:#1E1F23"/>
</linearGradient>
<path style="fill:url(#SVGID_2_);" d="M41.906,62.262c0,0,21.482,25.356,61.981,33.808c-0.853,17.1-1.707,34.201-2.56,51.301
	c-5.354,1.753-11.246,4.139-17.381,7.422c-17.809,9.53-29.462,22.228-36.405,31.431l11.269-45.077c0,0,1.761-19.721,11.269-28.173
	c3.172-2.819,7.909-2.951,8.425-6.013c0.137-0.814-0.019-1.673-0.223-2.794c-0.436-2.398-1.305-4.235-1.962-5.397
	c-1.141-1.839-2.282-3.678-3.423-5.518l-19.721,8.452c0,0-5.987,4.93-5.635,16.904s-5.635,19.721-5.635,19.721V62.262z"/>
<path style="fill:#2E18E8;" d="M42.118,62.049c3.853,6.345,13.628,17.74,37.39,28.136c0,0,14.718,6.071,22.077,7.359l-2.117,50.107
	c0.651-0.227,1.295-0.445,1.932-0.653c0.853-17.1,1.707-34.201,2.56-51.301C65.245,87.617,43.924,64.108,42.118,62.049z"/>
</svg>
