<?xml version="1.0" encoding="iso-8859-1"?>
<!-- Generator: Adobe Illustrator 19.0.1, SVG Export Plug-In . SVG Version: 6.00 Build 0)  -->
<svg version="1.1" id="Layer_1" xmlns="http://www.w3.org/2000/svg" xmlns:xlink="http://www.w3.org/1999/xlink" x="0px" y="0px"
	 viewBox="0 0 250 210" style="enable-background:new 0 0 250 210;" xml:space="preserve">
<path style="fill:#FFFFFF;" d="M40.897,29.673c-14.636,1.455-30.832,5.694-27.442,24.266c3.575,19.587,22.442,30.063,41.206,28.986
	c13.995-0.803,28.509-8.236,36.299-20.085c5.423-8.248,4.915-18.338-1.416-25.873c-6.279-7.472-16.593-9.895-25.957-9.936
	c-5.125-0.022-10.356,0.51-15.37,1.59C45.845,29.132,43.384,29.425,40.897,29.673z"/>
<path style="fill:#FFFFFF;" d="M78.918,75.946c0,0-24-2.667-23,11s-3.333,21.667,16,22s130,0,130,0s23.667,2.333,24-10
	c0.333-12.333-5-21-5-21L78.918,75.946z"/>
<path style="fill:#4248F0;" d="M58.918,66.946c0,0-14-5.5-14,18c0,29.975,1.502,60.411-0.764,90.306
	c-0.349,4.607-3.031,22.802,4.514,23.694c8.5,1,12.5,1.75,12.25-6c-0.617-19.144-0.116-38.378-0.093-57.528
	c0.012-9.467,0.04-18.933,0.055-28.4c0.008-4.939,0.013-9.878,0.01-14.817c-0.002-3.815-0.958-8.028,3.297-9.803
	c6.976-2.909,17.438-1.518,25.039-1.373c18.302,0.349,36.6,0.912,54.903,1.262c17.622,0.337,36.278,1.943,53.79-0.341
	c4.118-0.537,8.683-1.046,12.804-0.352c2.138,0.36,4.254,1.232,5.737,2.814c1.103,1.177,1.801,2.689,2.204,4.251
	c1.718,6.654,0.549,14.891,0.489,21.807c-0.056,6.472-0.148,12.943-0.253,19.414c-0.201,12.38-0.453,24.758-0.729,37.136
	c-0.081,3.639-0.079,7.293-0.253,10.929c-0.291,6.077-0.155,12.816,2.411,18.424c0.391,0.855,0.831,1.707,1.715,2.392
	c0.49,0.38,1.8,1.242,8.791,0.767c2.593-0.176,2.88-0.327,3.083-0.458c2.225-1.443,1.737-5.439,1.591-10.211
	c-0.133-4.355,0.001-8.716,0.101-13.072c0.239-10.365,0.146-20.741-0.442-31.093c-1.25-22-0.75-61-0.75-61s2.25-14-10.5-15.75
	S58.918,66.946,58.918,66.946z"/>
<path style="fill:#2E18E8;" d="M44.918,71.946c-1.811-0.061-4.284-2.498-4.484-4.22c-0.138-1.189,0.498-2.331,1.243-3.268
	c2.543-3.199,6.404-5.06,9.969-6.876C75.642,45.36,99.13,31.969,122.538,18.643c2.504-1.426,5.001-2.869,7.524-4.261
	c2.211-1.221,4.323-2.812,6.742-3.65c3.845-1.331,7.181,0.122,10.453,2.156c21.073,13.098,42.577,26.036,64.538,37.566
	c4.855,2.76,9.801,6.367,14.956,8.493c4.364,1.8,10.683,5.079,10.833,9.5c0,0,0.051,1.484-0.833,3
	c-0.665,1.14-3.128,1.326-4.24,1.526c-3.406,0.614-6.894,0.844-10.343,1.065c-11.443,0.733-22.962,0.897-34.424,0.872
	c-27.708-0.062-55.415-0.453-83.113-1.172C84.724,73.22,64.821,72.607,44.918,71.946z"/>
<path style="fill:#2E18E8;" d="M140.215,159.946c0,0-8-0.833-8,14c0,14.833-1.855,24.764,5.333,24.917
	c11.75,0.25,34.667,2.583,34.667-6.917c0-9.589,0-23,0-23s1.799-8.437-11-9C147.965,159.363,140.215,159.946,140.215,159.946z"/>
<path style="fill:#FA402A;" d="M145.366,161.903c0.058-0.32,0.129-0.635,0.221-0.945c0.263-0.878,0.937-1.521,1.469-1.887
	c0.67-0.461,1.835-0.488,4.166-0.542c0.242-0.006,1.05,0.01,2.667,0.042c0.436,0.008,0.931,0.02,1.583,0.125
	c0.47,0.076,0.855,0.173,1.125,0.25c0,0,2.708,0.958,3,5c0.292,4.042,0,5,0,5s-0.917,2.833-4,3s-7,0-7,0s-3.833-0.833-4-3
	c-0.124-1.616,0.288-3.184,0.483-4.781C145.171,163.419,145.232,162.651,145.366,161.903z"/>
<path style="fill:#2E18E8;" d="M180.913,120.364c0,0-8-0.833-8,14s-1.855,24.764,5.333,24.917c11.75,0.25,34.667,2.583,34.667-6.917
	c0-9.589,0-23,0-23s1.799-8.437-11-9C188.663,119.781,180.913,120.364,180.913,120.364z"/>
<path style="fill:#FA402A;" d="M199.634,122.321c-0.058-0.32-0.129-0.635-0.221-0.945c-0.263-0.878-0.937-1.521-1.469-1.887
	c-0.67-0.461-1.835-0.488-4.166-0.542c-0.242-0.006-1.05,0.01-2.667,0.042c-0.436,0.008-0.931,0.02-1.583,0.125
	c-0.47,0.076-0.855,0.173-1.125,0.25c0,0-2.708,0.958-3,5c-0.292,4.042,0,5,0,5s0.917,2.833,4,3s7,0,7,0s3.833-0.833,4-3
	c0.124-1.616-0.288-3.184-0.483-4.781C199.829,123.837,199.768,123.069,199.634,122.321z"/>
<path style="fill:#2E18E8;" d="M180.215,158.598c0,0-8-0.833-8,14c0,14.833-1.855,24.764,5.333,24.917
	c11.75,0.25,34.667,2.583,34.667-6.917c0-9.589,0-23,0-23s1.799-8.437-11-9C187.965,158.015,180.215,158.598,180.215,158.598z"/>
<path style="fill:#FA402A;" d="M185.366,167.297c0.058,0.32,0.129,0.635,0.221,0.945c0.263,0.878,0.937,1.521,1.469,1.887
	c0.67,0.461,1.835,0.488,4.166,0.542c0.242,0.006,1.05-0.01,2.667-0.042c0.436-0.008,0.931-0.02,1.583-0.125
	c0.47-0.076,0.855-0.173,1.125-0.25c0,0,2.708-0.958,3-5c0.292-4.042,0-5,0-5s-0.917-2.833-4-3s-7,0-7,0s-3.833,0.833-4,3
	c-0.124,1.616,0.288,3.184,0.483,4.781C185.171,165.781,185.232,166.549,185.366,167.297z"/>
</svg>
