<?xml version="1.0" encoding="iso-8859-1"?>
<!-- Generator: Adobe Illustrator 19.0.1, SVG Export Plug-In . SVG Version: 6.00 Build 0)  -->
<svg version="1.1" id="Layer_1" xmlns="http://www.w3.org/2000/svg" xmlns:xlink="http://www.w3.org/1999/xlink" x="0px" y="0px"
	 viewBox="0 0 700 550" style="enable-background:new 0 0 700 550;" xml:space="preserve">
<g id="man_2_">
	<path style="fill:#FA4E40;" d="M14.703,355.768c-0.276,18.154,0.342,36.115,1.688,53.498
		c3.664,47.328,26.375,94.458,74.496,109.025c30.94,9.366,61.739,0.286,90.85-10.779c32.626-12.401,64.703-21.237,99.611-14.63
		c46.87,8.87,91.102,28.618,138.48,36.952c52.723,9.274,111.29,12.9,163.859,0.571c26.4-6.192,52.116-18.681,69.506-39.489
		c42.045-50.31,36.585-145.561,22.848-205.021C640.387,131.562,492.29,22.115,337.246,12.608
		c-71.653-4.393-147.051,14.93-203.11,61.029c-43.229,35.549-72.253,83.178-92.868,134.554
		C23.137,253.377,15.47,305.319,14.703,355.768z"/>
	<path style="fill:#FFFFFF;" d="M474.185,438.078c0,0-19.846,4.962-16.125,6.202c3.721,1.24,9.923,2.481,9.923,2.481
		s35.558,2.894,47.135,4.962c0,0,5.375,1.034,11.164-2.481s16.125-9.923,16.125-9.923s4.962-1.861,3.721-12.404
		s-2.481-14.885-2.481-14.885l-48.376-3.721c0,0,1.861,15.298-2.481,21.087C488.449,435.183,474.185,438.078,474.185,438.078z"/>
	<path style="fill:#FFFFFF;" d="M389.779,394.586c0,0-0.702,8.424,3.715,9.749c0.377,0.113,0.791,0.174,1.246,0.174
		c5.789,0,189.781,17.366,189.781,17.366s5.995,1.24,7.442-6.202c1.447-7.442,13.644-157.531,13.644-157.531
		s0.827-8.063-3.721-8.683c-4.548-0.62-191.021-4.962-191.021-4.962s-4.962-0.207-6.202,4.962
		C403.423,254.628,389.779,394.586,389.779,394.586z"/>
	<path style="fill:#1E1F23;" d="M603.084,248.26c-4.601-0.625-193.233-5.003-193.233-5.003s-5.019-0.208-6.274,5.003
		c-0.983,4.081-9.659,91.5-13.377,129.233l205.056,16.636c3.974-43.669,11.593-137.115,11.593-137.115
		S607.685,248.886,603.084,248.26z"/>
	<path style="fill:#FFFFFF;" d="M413.405,255.739l-11.164,111.78c60.427,4.775,120.855,9.551,181.282,14.326
		c3.66-39.988,7.32-79.976,10.98-119.965L413.405,255.739z"/>
	<path id="mouse_1_" style="fill:#FFFFFF;" d="M489.07,501.338c0,0-10.543-4.341,0-11.164c10.543-6.822,26.048-4.962,26.048-4.962
		s18.451,2.326,16.125,6.202c-2.326,3.876-12.404,0-19.846,6.202C503.954,503.819,489.07,501.338,489.07,501.338z"/>
	<path id="keyboard_1_" style="fill:#FFFFFF;" d="M450.617,467.847l28.529,4.962c0,0,3.101,0,4.962-1.24
		c1.861-1.24,23.568-13.644,23.568-13.644s1.24-2.481-4.962-3.721c-6.202-1.24-130.242-18.606-130.242-18.606L450.617,467.847z"/>
	<path style="fill:#FFFFFF;" d="M378.67,401.486l-255.589-0.102c-3.407-0.001-6.167-2.764-6.166-6.171l0.069-171.243
		c0.001-3.407,2.764-6.167,6.171-6.166l255.589,0.102c3.407,0.001,6.167,2.764,6.166,6.171l-0.069,171.243
		C384.839,398.727,382.077,401.487,378.67,401.486z"/>
	<path style="fill:#1E1F23;" d="M386.122,376.627l0.061-152.297c0.002-4.259-3.454-7.712-7.719-7.714l-254.962-0.101
		c-4.265-0.002-7.723,3.449-7.725,7.708l-0.061,152.404H386.122z"/>
	<path style="fill:#FFFFFF;" d="M372.821,366.753l-243.867-0.097c-0.479,0-0.867-0.389-0.867-0.868l0.055-135.949
		c0-0.479,0.389-0.867,0.868-0.867l243.867,0.097c0.479,0,0.867,0.389,0.867,0.868l-0.055,135.949
		C373.688,366.365,373.3,366.753,372.821,366.753z"/>
	<g style="display:none;">
		<path style="display:inline;fill:#1E1F23;" d="M156.858,318.085c-1.297,0.172-2.585,0.358-3.865,0.561
			c-7.244,1.148-12.654,6.428-14.703,13.377c-2.029,6.882-3.13,14.37-2.81,21.555c0.08,1.782,1.146,2.705,2.759,3.28
			c6.378,2.275,13.192,2.511,19.897,2.454c17.984-0.155,52.091,0,52.097,0c4.106,0.019,8.716-0.544,12.218-2.86
			c4.61-3.049,4.124-8.148,3.696-13.036c-0.633-7.226-2.841-14.268-8.199-19.398c-6.087-5.828-14.919-7.355-23.103-7.643
			C182.236,315.931,169.358,316.432,156.858,318.085z"/>
		<path style="display:inline;fill:#413C4B;" d="M149.455,247.676c0,0-4.186,0.93-3.721,4.962s-2.171,20.001,7.442,27.289
			c9.613,7.287,33.801,21.862,48.376,21.087c14.575-0.775-21.087-48.376-21.087-48.376l-17.366-4.962H149.455z"/>
		<path style="display:inline;fill:#41466B;" d="M149.191,313.836c-1.214,1.938-3.518,4.947-2.599,6.358
			c0.244,0.375,0.748,0.619,1.622,0.665c2.946,0.155,17.366-2.946,32.25-2.481s32.25,2.481,32.25,2.481s4.341,0.93,2.481-3.721
			c-1.861-4.651-13.334-7.597-22.327-8.683c-8.993-1.085-20.467-5.737-24.808-22.327c-1.635-6.249-2.087-13.168-4.522-19.172
			c-1.768-4.358-7.888-9.259-12.664-6.317c-4.007,2.467-4.846,8.424-4.724,12.693c0.053,1.851,0.305,3.746,0.943,5.493
			c0.722,1.974,1.947,3.11,2.36,3.581c3.481,3.963,3.369,11.327,3.308,15.299C152.687,302.604,152.599,308.395,149.191,313.836z"/>
		<path style="display:inline;fill:#C9C8C8;" d="M146.974,250.157c0,0-2.171,0.62-1.24-1.24c0.93-1.861,12.404-3.721,12.404-3.721
			s42.329-7.287,57.058,9.923c14.73,17.211,0.62,44.034-8.683,45.895s-26.979-1.861-28.529-19.846
			c-1.551-17.986-1.24-27.134-13.644-29.77C151.935,248.761,146.974,250.157,146.974,250.157z"/>
		<path style="display:inline;fill:#41466B;" d="M213.335,255.893c-3.499-3.181-8.752-4.312-13.024-3.256
			c-9.024,2.23-13.828,14.252-12.869,23.723c0.15,1.477,1.611,13.974,11.164,17.211c4.584,1.553,9.677,0.515,13.179-1.861
			c9.026-6.121,7.037-20.81,6.821-22.406c-0.164-1.208-0.447-2.469-0.464-2.557C217.346,262.695,216.593,258.854,213.335,255.893z"
			/>
		<path style="display:inline;fill:#413C4B;" d="M203.412,258.374c-6.504,0.019-11.566,7.316-11.474,13.954
			c0.081,5.765,4.07,12.64,10.388,13.179c6.561,0.56,11.963-6.028,12.559-12.249C215.562,266.198,210.169,258.354,203.412,258.374z"
			/>
		<path style="display:inline;fill:#1E1F23;" d="M203.297,263.804c-1.683-0.071-3.599,0.259-4.965,1.186
			c-3.645,2.476-3.635,10.516-0.266,13.231c1.136,0.916,2.454,1.015,3.393,1.085c2.179,0.164,4.939-0.322,6.051-2.436
			c0.481-0.916,0.663-1.956,0.811-2.98c0.52-3.605,0.285-9.57-4.445-10.045C203.687,263.826,203.494,263.812,203.297,263.804z"/>
	</g>
	<path style="fill:#FA402A;" d="M215.988,251.343c-10.116,1.059-20.344,1.913-30.011,5.172c-8.387,2.827-18.418,8.198-22.923,16.239
		c-5.142,9.178-2.347,20.934-1.364,30.806c0.532,5.342,0.904,10.853-0.772,16.047c-1.709,5.299-7.069,8.848-6.985,14.546
		c0.114,7.658,7.709,13.311,14.62,14.703c10,2.014,20.987,0.967,30.957-0.803c63.016-11.19,83.629-1.178,83.629-1.178
		c13.944,3.417,29.745,6.417,44.185,5.223c4.674-0.387,9.59-2.281,11.956-6.33c1.957-3.349,1.813-7.522,1.065-11.328
		c-3.472-17.652-6.03-35.704-2.07-53.561c0.934-4.211,2.28-8.448,1.876-12.743c-1.755-18.668-30.085-19.037-43.671-20.449
		c-11.206-1.165-22.522-1.213-33.769-0.76c-13.463,0.542-26.944,2.008-40.309,3.69C220.273,250.885,218.133,251.119,215.988,251.343
		z"/>
	<g id="man_1_">
		<g id="face_1_">
			<path style="fill:#AD9471;" d="M228.586,305.355c0,0,44.034,20.467,60.78,16.125c1.34-4.691,2.66-9.459,3.954-14.303
				c1.791-6.706,3.469-13.311,5.039-19.808c1.622-3.003,2.891-3.536,3.721-3.514c2.121,0.055,3.424,3.79,8.373,14.058
				c3.174,6.586,3.706,7.276,4.26,7.23c4.042-0.337,4.423-28.317,4.423-28.317s0.31-4.962,1.24-9.923c0.93-4.962,0-13.644,0-13.644
				s-2.403-5.427,0-8.683s-1.24-13.644-1.24-13.644s-3.101-25.428-12.404-24.808c-9.303,0.62-40.933,27.289-40.933,27.289
				s-45.068,42.587-33.491,60.78L228.586,305.355z"/>
			<path style="fill:#1E1F23;" d="M285.644,318.999c0,0,34.731-2.946,32.25-22.327c0,0-0.62-6.512-3.721-9.923
				c-3.101-3.411,0-9.923,0-9.923s2.636-8.528,0-18.606c-0.698-0.711-1.759-1.591-2.642-1.315c-1.239,0.387-1.472,2.849-1.596,4.313
				c-1.092,12.887-0.664,17.094-3.308,19.743c-1.66,1.663-2.3,0.478-5.065,2.377c-4.504,3.095-5.953,8.404-7.442,14.161
				c-1.885,7.288-0.858,9.258-3.204,14.161C289.293,315.051,287.193,317.468,285.644,318.999z"/>
			<path style="fill:#907656;" d="M306.819,250.759c-0.327-1.615-0.971-3.2-1.606-4.551c-0.493-1.051-1.107-2.624-2.226-3.186
				c-3.667-1.841-5.64,7.048-6.18,8.996c-1.71,6.174-2.139,12.988,0.485,18.976c1.45,3.308,6.617,12.18,9.892,5.863
				c2.158-4.163,0.734-10.143-0.709-14.327c-0.417-1.211-1.323-2.375-1.468-3.667c-0.177-1.573,0.681-1.757,1.329-2.995
				C307.154,254.307,307.174,252.516,306.819,250.759z"/>
			<path style="fill:#1E1F23;" d="M231.067,289.23c0,0,21.087,15.712,38.452,2.481c17.366-13.231,21.087-37.212,21.087-37.212
				s9.51-17.159,18.606-3.721c0,0,1.034,3.721,2.481,3.721s2.481-3.721,2.481-3.721s2.481-2.274,1.24-6.202
				c-1.24-3.928,1.24-14.265,4.962-16.125s5.582-9.716,1.24-16.125c-4.341-6.409-6.202-12.404-6.202-12.404
				s-7.236-13.024-26.048-17.366c-8.882-2.05-18.161-4.005-27.326-3.239c-3.885,0.325-7.743,1.203-11.261,2.915
				c-1.786,0.869-3.469,1.942-5.011,3.193c-2.302,1.867-4.054,4.359-7.259,4.573c-1.596,0.107-3.402,0.589-4.348,1.992
				c-1.094,1.622-0.786,3.203-2.6,4.372c-1.641,1.058-3.821,1.343-5.18,2.835c-2.558,2.807-5.538,6.358-5.306,10.395
				c0.145,2.525-0.972,3.434-2.189,5.424c-1.048,1.715-1.065,3.029-1.447,6.982c-0.516,5.337-1.097,5.52-1.41,9.087
				c-0.539,6.144,0.713,10.994,2.222,16.641c1.408,5.269,1.622,4.196,4.695,13.379c2.544,7.601,4.693,15.339,6.782,23.075
				C230.179,285.862,230.63,287.544,231.067,289.23z"/>
		</g>
		<path style="fill:#AD9471;" d="M454.339,477.771c1.987,0.618,6.655-2.963,8.018-3.956c5.979-4.361,10.398-10.772,13.411-17.461
			c4.498-9.984-9.782-6.564-7.785-14.555c0.425-1.702-0.473-3.582-1.922-4.516c-1.809-1.165-2.871,0.113-4.735-0.225
			c-2.11-0.383-2.979-2.734-4.944-3.479c-1.524-0.578-3.186-0.635-4.65,0.132c-0.99,0.519-1.852,1.25-2.814,1.819
			c-3.933,2.326-8.303,0.039-12.192,2.393c-4.596,2.782-6.314,8.871-7.194,13.799C426.43,469.083,454.323,477.766,454.339,477.771z"
			/>
		<path style="fill:#2E38E8;" d="M143.395,530.694c66.16,0,132.321,0,198.481,0c1.129-7.904,2.112-16.18,2.894-24.808
			c1.088-12.012,1.672-23.449,1.884-34.23c0,0,15.712,26.875,27.289,32.25c11.577,5.375,14.885,9.923,14.885,9.923
			s16.952,5.789,37.212,0c20.26-5.789,35.972-16.125,35.972-16.125s4.962-7.029,1.24-14.885c-3.721-7.856-7.442-22.327-7.442-22.327
			s-0.413-4.962-6.202-4.962c-5.789,0-9.923-6.202-9.923-6.202s-4.135-2.481-7.442-2.481c-3.308,0-12.404-6.202-12.404-6.202
			s-9.51-5.789-12.404-16.125c-2.894-10.337-14.885-21.087-14.885-21.087s-11.577-12.817-14.885-19.846
			c-3.308-7.029-16.125-16.125-16.125-16.125s-11.577-10.75-12.404-14.885c-0.827-4.135-2.894-9.923-7.442-11.164
			s-31.01-3.721-31.01-3.721s-8.683-1.24-13.644-7.442c-4.962-6.202-5.375-14.885-14.885-24.808s-27.289-16.125-27.289-16.125
			s-11.991-2.894-19.846-3.721c-7.856-0.827-5.375,4.135-16.125,17.366c0,0-2.481,2.894-1.24,7.442c0,0-16.952,7.856-22.327,7.442
			c-5.375-0.413-8.683-0.827-11.164,2.481c-2.481,3.308-24.808,16.539-34.731,38.452c-9.923,21.914-13.644,38.039-12.404,63.26
			c0.89,18.104,5.189,22.361,6.474,30.662c0.843,5.446,0.141,9.516-0.272,12.752c-3.062,23.993-1.247,48.452-0.661,56.35
			C142.86,525.738,143.193,528.895,143.395,530.694z"/>
		<path style="fill:#2E18E8;" d="M264.558,315.278c0,0,11.629-2.946,26.048,12.404c0,0,2.171,2.171,8.683,6.202l0.554-0.886
			c-1.001-0.787-1.959-1.69-2.804-2.748c-4.962-6.202-5.375-14.885-14.885-24.808c-9.51-9.923-27.289-16.125-27.289-16.125
			s-11.991-2.894-19.846-3.721c-7.856-0.827-5.375,4.135-16.125,17.366c0,0-2.481,2.894-1.24,7.442
			C217.653,310.404,229.051,289.385,264.558,315.278z"/>
		<path style="fill:#2E18E8;" d="M270.76,374.817c-41.48-9.989-104.025-7.777-125.315-6.648
			c-6.787,17.168-9.369,31.857-8.461,52.718c70.821,1.847,126.334,9.749,126.334,9.749L270.76,374.817z"/>
		<path style="fill:#2E18E8;" d="M336.501,356.211c-1.063,9.905-1.717,20.539-1.744,31.824c-0.085,35,5.879,65.173,12.908,88.908
			c-4.211-9.331-6.831-17.248-8.476-22.947c-1.395-4.834-2.399-9.147-3.928-15.712c-1.307-5.615-2.816-12.095-3.721-17.159
			c-0.786-4.397-3.263-19.734-0.827-39.279C331.537,375.229,333.144,366.374,336.501,356.211z"/>
		<g>
			<path style="fill:#2933CC;" d="M238.509,345.048c64.087-2.067,97.991,11.164,97.991,11.164
				c1.661-8.111,3.692-12.431,5.371-14.735c-0.061-0.019-0.118-0.045-0.18-0.062c-4.548-1.24-31.01-3.721-31.01-3.721
				s-5.971-0.864-10.84-4.695l-0.554,0.886c-6.512-4.031-8.683-6.202-8.683-6.202c-14.42-15.35-26.048-12.404-26.048-12.404
				c-35.506-25.893-46.905-4.874-46.905-4.874s-16.952,7.856-22.327,7.442c-5.375-0.413-8.683-0.827-11.164,2.481
				c-1.849,2.465-14.717,10.444-25.262,23.417C171.406,344.928,196.671,346.397,238.509,345.048z"/>
		</g>
		<g id="sign_1_">
			<path style="fill:none;stroke:#EFEFEF;stroke-width:3;stroke-linecap:round;stroke-linejoin:round;stroke-miterlimit:10;" d="
				M147.157,384.967c0.266-2.535,0.452-5.133,0.269-7.679c-0.055-0.77-0.064-2.836-0.986-3.21c-2.308-0.937-3.772,4.888-4.057,6.297
				c-0.566,2.794-0.312,5.695,0.434,8.43c0.724,2.652,2.524,5.06,2.619,7.816c0.118,3.421,0.229,6.906-0.693,10.202
				c-0.2,0.716-0.461,1.44-0.964,1.988c-2.68,2.918-4.689-1.937-4.688-3.969c0.001-1.821,0.385-3.678,0.941-5.408"/>
			<path style="fill:none;stroke:#EFEFEF;stroke-width:3;stroke-linecap:round;stroke-linejoin:round;stroke-miterlimit:10;" d="
				M162.593,375.167l-8.668-0.499c-1.23,11.523-2.46,23.047-3.69,34.57c1.803,0.106,3.607,0.211,5.41,0.317
				c0.712-0.002,1.424-0.005,2.135-0.007"/>
			
				<line style="fill:none;stroke:#EFEFEF;stroke-width:3;stroke-linecap:round;stroke-linejoin:round;stroke-miterlimit:10;" x1="157.88" y1="392.29" x2="152.927" y2="392.005"/>
			<path style="fill:none;stroke:#EFEFEF;stroke-width:3;stroke-linecap:round;stroke-linejoin:round;stroke-miterlimit:10;" d="
				M174.008,384.741c0,0,1.447-13.024-4.962-9.923c-3.194,1.546-4.239,5.744-4.937,8.897c-1.589,7.177-2.483,14.497-2.73,21.843
				c-0.08,2.386,1.286,5.018,4.153,4.405c2.096-0.448,3.168-3.227,4.904-7.724c0.442-1.144,0.767-2.119,0.988-2.82"/>
			<path style="fill:none;stroke:#EFEFEF;stroke-width:3;stroke-linecap:round;stroke-linejoin:round;stroke-miterlimit:10;" d="
				M182.611,374.817c-1.979,8.2-4.275,18.468-5.812,27.806c-0.407,2.473-1.269,7.993,0.827,9.096c0.823,0.433,2.073,0.17,2.894-0.31
				c2.02-1.18,2.63-4.792,3.307-6.867c1.811-5.548,3.127-11.348,4.548-17.01c0.75-2.989,1.879-7.322,3.411-12.611"/>
			<path style="fill:none;stroke:#EFEFEF;stroke-width:3;stroke-linecap:round;stroke-linejoin:round;stroke-miterlimit:10;" d="
				M188.893,411.993c3.17-11.978,6.34-23.955,9.51-35.933c4.709-0.456,8.55,1.044,9.613,3.732c0.489,1.235,0.283,2.451,0.103,3.519
				c-0.042,0.251-0.917,4.996-4.962,7.464c-3.739,2.281-8.007,1.285-8.063,2.026c-0.026,0.345,0.902,0.557,2.377,1.386
				c1.848,1.038,3.462,2.201,4.222,4.26c1.72,4.664,1.114,9.947,0.121,14.72"/>
			<path style="fill:none;stroke:#EFEFEF;stroke-width:3;stroke-linecap:round;stroke-linejoin:round;stroke-miterlimit:10;" d="
				M217.577,376.213c-2.326,12.507-4.651,25.015-6.977,37.522"/>
			
				<line style="fill:none;stroke:#EFEFEF;stroke-width:3;stroke-linecap:round;stroke-linejoin:round;stroke-miterlimit:10;" x1="223.624" y1="414.51" x2="231.067" y2="379.779"/>
			
				<line style="fill:none;stroke:#EFEFEF;stroke-width:3;stroke-linecap:round;stroke-linejoin:round;stroke-miterlimit:10;" x1="222.384" y1="378.539" x2="239.75" y2="379.779"/>
			
				<polyline style="fill:none;stroke:#EFEFEF;stroke-width:3;stroke-linecap:round;stroke-linejoin:round;stroke-miterlimit:10;" points="
				245.952,379.779 249.673,399.625 262.077,381.019 			"/>
			<path style="fill:none;stroke:#EFEFEF;stroke-width:3;stroke-linecap:round;stroke-linejoin:round;stroke-miterlimit:10;" d="
				M245.952,416.216c1.24-5.53,2.481-11.06,3.721-16.59"/>
		</g>
	</g>
</g>
<g id="_x30_3_x5F_camera">
	<path style="fill:#2933CC;" d="M588.072,333.367c-0.388-0.097-0.949-0.174-1.551,0c-3.098,0.894-3.703,7.393-4.16,12.865
		c-2.147,25.687-2.325,31.275,0.749,32.565c0.339,0.142,0.781,0.259,1.344,0.258c0.88-7.33,1.649-14.95,2.274-22.844
		C587.351,348.342,587.788,340.721,588.072,333.367z"/>
	<path style="fill:#2933CC;" d="M584.739,344.121c0,0-35.146,0.2-47.171-1.657c-12.025-1.858-14.259,0.456-15.056-9.662
		s2.112-21.127,2.112-21.127l-15.906,12.684l0.347,19.843c0,0,0.565,8.674,11.314,8.486c10.748-0.188,28.318-0.495,47.28,7.858
		l13.816,9.683L584.739,344.121z"/>
	<path style="fill:#4248F0;" d="M497.837,340.677l-8.551,7.593c0,0-34.278-21.111-36.573-34.098l63.099-9.786l2.762,16.079
		L497.837,340.677z"/>
	<path style="fill:#41466B;" d="M468.836,313.89c0,0-12.819,0.017-7.138,17.493c5.681,17.476,32.019,21.978,32.44,10.599
		C494.56,330.602,487.13,319.567,468.836,313.89z"/>
	<path style="fill:#413C4B;" d="M468.857,315.131c0,0-5.952,14.371,7.875,24.674s17.914-4.241,14.731-8.941
		C488.279,326.163,491.616,315.974,468.857,315.131z"/>
	<path style="fill:#1E1F23;" d="M476.364,318.721c0,0-3.011,5.17,1.435,11.14c4.446,5.97,8.768,4.809,8.768,4.809
		s3.707-0.84-2.719-13.599S476.364,318.721,476.364,318.721z"/>
	<path style="fill:#2E38E8;" d="M502.711,335.629l43.976-39.226c0,0,1.824-2.099-0.108-6.201
		c-1.933-4.102-10.203-15.949-10.203-15.949s-2.538-3.264-8.768-4.809s-12.692-4.534-22.28,2.87
		c-9.589,7.404-50.155,40.575-50.155,40.575s-4.497,2.973,0.043,2.48C459.755,314.876,485.879,318.969,502.711,335.629z"/>
</g>
</svg>
