<?xml version="1.0" encoding="iso-8859-1"?>
<!-- Generator: Adobe Illustrator 19.0.1, SVG Export Plug-In . SVG Version: 6.00 Build 0)  -->
<svg version="1.1" id="Layer_1" xmlns="http://www.w3.org/2000/svg" xmlns:xlink="http://www.w3.org/1999/xlink" x="0px" y="0px"
	 viewBox="0 0 100 100" style="enable-background:new 0 0 100 100;" xml:space="preserve">
<rect x="0" y="-0.007" style="fill:#2E18E8;" width="100" height="100"/>
<g>
	<path style="fill:#907656;" d="M28.254,64.993c0,0,6,19.167,3,27s-12,15-12,15h65c0,0-11-8-14-16s1-25,1-25L28.254,64.993z"/>
	<path style="fill:#AD9471;" d="M23.257,34.986c0,0-2.549,32.167,15.293,49c0,0,4.078,5.833,10.195,6s10.025-2.667,14.273-7
		s11.894-12.333,12.234-27c0.34-14.667,0-24,0-24l-8.156-10l-29.566-3l-11.215,5L23.257,34.986z"/>
	<path style="fill:#1E1F23;" d="M28.254,68.993c-1.237-1.893-3.167-4.801-5.625-8.313c-2.1-3-4.779-5.938-5.978-9.445
		c-1.078-3.153-1.084-6.571-0.586-9.835c0.441-2.889,1.396-5.67,1.97-8.533c1.201-5.991,0.694-6.79,1.574-10.223
		c0.507-1.979,1.865-7.274,6.145-11.402c7.694-7.42,19.268-5.704,19.75-5.625c1.947,0.318,2.722,0.74,5.774,1.133
		c5.662,0.73,7.006-0.203,10.613,0.389c5.185,0.851,8.761,3.822,10.364,5.186c1.272,1.083,4.95,4.292,6.875,9.667
		c1.55,4.329,0.645,6.385,1.292,14.167c0.375,4.511,1.036,8.119,1.5,10.333c0.129,1.032,0.228,2.543,0,4.333
		c-0.315,2.476-1.106,4.336-2,6.167c-2.164,4.433-4.744,8.324-6.667,11c2.779-11.442,2.258-17.221,1-20.375
		c-0.131-0.329-0.481-1.157-0.875-2.375c-1.514-4.68-0.985-6.779-1.75-10.625c-0.65-3.266-1.325-6.663-4.125-9
		c-2.776-2.317-6.179-2.373-7-2.375c-4.733-0.013-5.229,2.96-10.25,3.75c-4.711,0.741-5.626-1.662-11.833-0.833
		c-3.947,0.527-5.639,1.774-6.042,2.083c-2.848,2.188-3.636,5.45-3.875,6.75c0.163,1.489,0.226,3.73-0.5,6.25
		c-0.742,2.577-1.693,3.302-2.5,5.25c-0.344,0.829-1.123,2.994,0.25,11.375C26.228,60.759,26.987,64.567,28.254,68.993z"/>
</g>
</svg>
