<?xml version="1.0" encoding="iso-8859-1"?>
<!-- Generator: Adobe Illustrator 19.0.1, SVG Export Plug-In . SVG Version: 6.00 Build 0)  -->
<svg version="1.1" id="Layer_1" xmlns="http://www.w3.org/2000/svg" xmlns:xlink="http://www.w3.org/1999/xlink" x="0px" y="0px"
	 viewBox="0 0 660 550" style="enable-background:new 0 0 660 550;" xml:space="preserve">
<path id="black" style="fill:#1E1F23;" d="M441.806,23.041c-5.784,2.159-11.335,4.849-16.553,8.084
	c-42.032,26.06-60.928,84.001-42.235,129.787c18.693,45.786,72.843,73.951,121.038,62.859
	c65.413-15.055,96.492-88.82,72.501-148.678C556.318,24.601,490.751,4.775,441.806,23.041z"/>
<path id="bg" style="fill:#FA4E40;" d="M628.412,336.46c-24.82-7.917-62.258,0.209-81.674,1.292
	c-91.852,5.123-183.123,10.96-275.23,11.334c-43.902,0.181-87.807-0.362-131.694-1.627c-65.501-1.889-95.41-13.006-113.262,5.975
	c-19.001,20.204-14.744,61.089-1.087,89.071c38.931,79.764,169.842,87.729,232.296,91.529
	c81.175,4.939,141.444-10.165,179.711-20.092c125.894-32.658,192.526-90.574,205.542-124.406
	c2.986-7.762,11.295-28.662,1.223-42.313C640.771,342.524,635.586,338.748,628.412,336.46z"/>
<g style="display:none;">
	<path style="display:inline;fill:#4248F0;" d="M368.189,121.997l-4-36c0,0-3.333-17.667,18-29c21.333-11.333,91.333-30.667,160-18
		s79,37,79,37s5,5-4,43s-136-21-136-21S403.522,92.997,368.189,121.997z"/>
	<path style="display:inline;fill:#2E18E8;" d="M399.189,218.997c0,0-24.333-22.333-27-73c-2.667-50.667,64-38,64-38l125,75l26,61
		c0,0,3,28-40,23S399.189,218.997,399.189,218.997z"/>
	<path style="display:inline;fill:#1E1F23;" d="M611.189,120.997c0,0,5.333,3,7-9c1.667-12-41-25-41-25s-25.667-11.667-85-11
		c-59.333,0.667-86,10-86,10s-42.333,8-38,36l37-17l105-8l76,14L611.189,120.997z"/>
	<path style="display:inline;fill:#4248F0;" d="M369.189,125.997c0,0-5-14.333,13-26s55.333-21,122-20c66.667,1,104,25,104,25
		s9,6.333,8,15s-10,68-10,68s-3,45.667-24,71c0,0,10.333-9.333-21-41c-31.333-31.667-69-60-69-60s-73-54.667-104-36
		c0,0-17,8.667-14,40L369.189,125.997z"/>
	<path style="display:inline;fill:#1E1F23;" d="M426.189,136.997c0,0-29.333,2.667-34,55c-4.667,52.333,48,89,48,89s41.333,35,92,10
		c0,0,22.667-9,41-33c0,0,9-7.667-6-27s-36-37-36-37S458.522,130.331,426.189,136.997z"/>
	<g style="display:inline;">
		<path style="fill:#41466B;" d="M488.484,292.394c-9.648,0-18.964-2.81-20.219-3.202c-59.076-26.723-68.044-71.298-68.127-71.746
			c-1.854-11.455-0.428-20.088,4.254-25.589c5.321-6.252,13.661-6.928,16.999-6.928c0.934,0,1.496,0.053,1.502,0.054
			c43.051,3.827,72.525,46.277,72.818,46.706c0.245,0.344,20.394,28.765,13.627,49.373c-2.469,7.52-9.486,11.332-20.853,11.332
			C488.484,292.394,488.485,292.394,488.484,292.394z"/>
		<path style="fill:#4248F0;" d="M421.391,187.929c0.736,0,1.187,0.038,1.191,0.038c0,0,0,0-0.001,0l0.038,0.004l0.038,0.003
			c41.558,3.694,70.292,44.992,70.574,45.404l0.042,0.062l0.04,0.056c0.195,0.273,19.459,27.491,13.174,46.63
			c-0.753,2.293-3.043,9.269-18.005,9.269c-8.845,0-17.518-2.514-19.153-3.014c-29.85-13.542-46.252-31.661-54.762-44.499
			c-8.956-13.51-11.313-24.184-11.473-24.945c-1.696-10.567-0.491-18.351,3.582-23.136
			C411.188,188.501,418.47,187.929,421.391,187.929 M421.391,181.929c-6.711,0-29.652,2.418-24.202,36.068c0,0,8.667,46.333,70,74
			c0,0,10.376,3.397,21.295,3.397c9.888,0,20.22-2.784,23.705-13.397c7.333-22.333-14-52-14-52s-30-44-75-48
			C423.189,181.997,422.518,181.929,421.391,181.929L421.391,181.929z"/>
	</g>
	<path style="display:inline;fill:#2E18E8;" d="M425.42,212.169c-2.437,3.414-3.602,7.954-3.417,12.612
		c0.608,15.284,13.158,28.11,24.184,37.215c7.7,6.358,17.496,13.026,28.048,10.399c9.358-2.33,14.902-11.353,12.805-20.716
		c-2.36-10.537-10.553-19.877-17.979-27.317c-7.776-7.792-18.68-16.682-30.047-17.939
		C432.834,205.739,428.262,208.188,425.42,212.169z"/>
	<path style="display:inline;fill:#1E1F23;" d="M454.502,219.481c-3.44-2.113-8.571-4.322-14.636-3.918
		c-7.659,0.51-10.877,6.509-9.389,13.807c0.852,4.178,3.14,7.923,5.712,11.323c3.922,5.183,9.076,11.702,18.61,16.826
		c5.81,3.122,11.884,6.386,18.388,4.312c1.545-0.492,4.827-1.539,6.5-4.333C485.246,248.215,468.131,227.85,454.502,219.481z"/>
	<path style="display:inline;fill:#FA402A;" d="M455.281,228.837c-3.407-1.95-6.706-2.617-8.418,0.106
		c-3.653,5.812,5.561,15.113,10.325,17.054c5.363,2.185,12.951-0.047,8.992-7.171C465.101,236.886,460.085,231.586,455.281,228.837z
		"/>
</g>
<g id="camera">
	<path style="fill:#1E1F23;" d="M418.52,98.872l0.184-0.084c0-0.02-0.002-0.039-0.002-0.059
		C418.642,98.777,418.58,98.824,418.52,98.872z"/>
	<path style="fill:#4248F0;" d="M524.291,166.145c-0.078,0.096-0.152,0.198-0.231,0.293
		C524.06,166.438,524.162,166.343,524.291,166.145z"/>
	<path style="fill:#FFFFFF;" d="M543.294,76.186c0,0-5.096-12.001-38.961-18.248c-33.865-6.247-68.387,3.288-78.909,8.877
		c-10.521,5.589-8.877,14.302-8.877,14.302l1.973,17.754c-2.137-13.809,18.741-17.754,18.741-17.754s13.151-4.603,42.413-4.932
		c29.262-0.329,41.92,5.425,41.92,5.425s21.042,6.411,20.22,12.329c-0.218,1.573-0.566,2.612-0.957,3.307
		c0.016-3.942-3.975-6.759-3.975-6.759s-18.412-11.836-51.29-12.329c-32.879-0.493-51.29,4.11-60.168,9.864
		c-5.864,3.801-6.778,8.174-6.723,10.706c0,0.02,0.002,0.039,0.002,0.059c0.035,1.265,0.31,2.057,0.31,2.057l1.581,11.385
		l0.885,6.369c-1.48-15.453,6.904-19.727,6.904-19.727c15.289-9.206,51.291,17.754,51.291,17.754s18.576,13.973,34.029,29.591
		c12.335,12.466,11.577,17.91,10.769,19.601c-0.062,0.131-0.124,0.239-0.181,0.327c10.144-12.548,11.606-34.723,11.606-34.723
		s3.842-25.328,4.773-32.292c0.279-0.528,0.501-1.103,0.652-1.738C545.76,78.652,543.294,76.186,543.294,76.186z"/>
	<path style="fill:#FFFFFF;" d="M516.663,152.629c-7.398-9.535-17.754-18.248-17.754-18.248s-35.838-31.399-51.784-28.111
		c0,0-14.467,1.315-16.768,27.125c-0.302,3.389-0.107,6.641,0.443,9.741c3.639,20.502,23.229,34.152,23.229,34.152
		s20.385,17.261,45.372,4.932c0,0,8.354-3.322,16.459-11.867c1.271-1.34,2.536-2.804,3.761-4.408
		C519.622,165.944,524.06,162.163,516.663,152.629z M489.538,177.781c-1.719,5.234-6.815,6.607-11.691,6.607
		c-5.385,0-10.502-1.675-10.502-1.675c-30.248-13.645-34.522-36.495-34.522-36.495c-0.036-0.221-0.059-0.428-0.09-0.643
		c-2.288-15.973,8.76-17.145,12.026-17.145c0.556,0,0.886,0.034,0.886,0.034c22.193,1.973,36.988,23.673,36.988,23.673
		s4.784,6.661,6.79,14.376C490.39,170.233,490.715,174.197,489.538,177.781z"/>
	<path style="fill:#FFFFFF;" d="M482.778,164.525c-1.523-3.939-3.633-7.441-4.789-9.049l-0.042-0.058l-0.04-0.059
		c-0.128-0.185-13.616-19.495-32.768-21.197l-0.017-0.002c-0.063-0.004-0.189-0.01-0.363-0.01c-0.825,0-3.634,0.139-5.154,1.924
		c-1.435,1.686-1.832,4.842-1.151,9.132c0.066,0.312,0.392,1.729,1.253,3.865c2.584,6.41,9.989,19.302,29.669,28.281
		c0.986,0.291,4.721,1.315,8.471,1.315c5.379,0,6.016-1.941,6.256-2.671C485.197,172.663,484.269,168.384,482.778,164.525z
		 M470.82,173.045c-5.204,1.296-10.035-1.993-13.833-5.128c-5.032-4.155-10.697-9.884-11.754-16.688
		c-0.085-0.549-0.15-1.103-0.173-1.666c-0.091-2.297,0.483-4.536,1.685-6.22c1.402-1.963,3.657-3.171,6.704-2.834
		c5.606,0.62,10.983,5.004,14.818,8.847c3.634,3.641,7.638,8.206,8.836,13.354c0.009,0.04,0.022,0.078,0.03,0.118
		C478.169,167.446,475.435,171.896,470.82,173.045z"/>
	<path style="fill:#2E18E8;" d="M477.135,162.828c-0.009-0.04-0.021-0.078-0.03-0.118c-1.198-5.148-5.202-9.713-8.836-13.354
		c-3.835-3.843-9.213-8.227-14.818-8.847c-3.048-0.337-5.303,0.871-6.704,2.834c-1.202,1.684-1.777,3.923-1.685,6.22
		c0.022,0.563,0.087,1.117,0.173,1.666c1.057,6.804,6.723,12.533,11.754,16.688c3.798,3.135,8.629,6.424,13.833,5.128
		C475.435,171.896,478.169,167.446,477.135,162.828z M473.51,165.698c-0.825,1.378-2.444,1.894-3.206,2.137
		c-3.208,1.023-6.203-0.587-9.069-2.127c-4.702-2.527-7.244-5.742-9.178-8.298c-1.049-1.387-1.996-2.893-2.532-4.537
		c-0.112-0.344-0.213-0.691-0.285-1.047c-0.734-3.599,0.853-6.558,4.63-6.809c2.991-0.199,5.521,0.89,7.218,1.932
		c5.098,3.131,11.181,9.664,12.628,14.635C474.177,163.167,474.171,164.592,473.51,165.698z"/>
	<path style="fill:#FA402A;" d="M466.847,156.49c-0.532-0.957-3.006-3.571-5.375-4.927c-1.68-0.962-3.307-1.291-4.152,0.052
		c-0.808,1.285-0.336,2.915,0.639,4.41c1.198,1.839,3.157,3.473,4.453,4.001c1.716,0.699,3.884,0.475,4.669-0.723
		C467.507,158.654,467.533,157.724,466.847,156.49z"/>
</g>
<g id="home">
	<polygon style="fill:#EFEFEF;" points="298.695,192.47 298.695,347.525 461.663,344.028 461.663,232.108 	"/>
	<polygon style="fill:#FFFFFF;" points="136.843,338.695 299.811,336.462 299.811,196.935 198.235,118.8 135.727,213.678 	"/>
	<polygon style="opacity:0.2;fill:#41466B;" points="452.733,229.777 362.319,349.857 461.663,344.028 461.663,229.777 	"/>
	<path style="fill:#4248F0;" d="M237.311,330.876c-0.925-2.192-2.423-6.104-3.45-11.156c-2.56-12.597-0.022-21.622,0.837-45.021
		c0.339-9.243,0.086-11.728-1.86-13.674c-5.908-5.906-20.057,0.51-22.883-4.558c-0.839-1.505-0.346-3.422,0.285-4.921
		c4.111-0.675,10.715-1.769,18.934-3.052c6.433-1.004,12.865-2.009,19.298-3.013c6.67-1.041,13.348-2.026,20.008-3.124
		c11.475-1.893,16.168-2.862,18.308-0.214c1.072,1.327,0.84,2.74,0.744,6.883c-0.121,5.211,0.6,10.415,0.558,15.627
		c-0.158,19.546-0.237,29.319-0.186,30.51c0,0,1.425,33.48-1.86,39.626c-0.027,0.051-0.353,0.649-0.744,1.488
		c-0.576,1.237-0.909,2.179-0.93,2.232C283.964,339.563,273.133,338.259,237.311,330.876z"/>
	<path style="fill:#FA402A;" d="M247.363,331.993c-0.007-11.592-0.014-23.184-0.021-34.776c-0.004-5.796-0.007-11.592-0.011-17.388
		c-0.002-2.898-0.004-5.796-0.005-8.694c-0.001-1.654-0.492-3.482,0.404-4.564c0.182-0.22,0.62-0.394,1.435-0.801
		c1.037-0.517,1.912-0.882,2.277-1.026c3.398-1.339,8.278-2.139,8.278-2.139c3.33-0.546,5.832-0.949,7.613-1.051
		c1.067-0.061,2.545-0.147,3.286,0.757c0.451,0.55,0.45,1.242,0.45,1.504c-0.015,15.237,0.41,30.485,0.685,45.724
		c0.083,4.569,0.165,9.137,0.248,13.706c0.057,3.134,1.052,8.374-1.213,10.978c-0.712,0.818-2.57,2.2-11.44,0.844
		C256.377,334.613,252.224,333.756,247.363,331.993z"/>
	<path style="fill:#4248F0;" d="M301.294,333.114c-53.119,1.784-106.279,2.472-159.398,4.256c-1.117,0.038-2.842,0.173-3.865,0.961
		c-0.343,0.264-0.607,0.601-0.743,1.033c-0.16,0.508-0.144,1.053-0.129,1.586c0.058,2.008,0.087,4.016,0.101,6.024
		c0.014,1.959,0.123,3.927,0.11,5.882c-0.012,1.836-0.416,3.815,0.467,5.525c0.742,1.438,2.254,2.317,3.778,2.859
		c3.095,1.101,6.183,0.695,9.372,0.651c3.588-0.05,7.176-0.096,10.764-0.145c11.625-0.157,23.251-0.315,34.876-0.472
		c11.625-0.157,23.251-0.315,34.877-0.472c11.625-0.157,23.251-0.315,34.877-0.472c11.625-0.158,23.289,0.85,34.915,0.692
		C301.293,351.74,301.295,342.393,301.294,333.114z"/>
	<path style="fill:#4248F0;" d="M187.792,255.454l-33.014,3.989c0,0-2.113,0.744-2.305,3.349c-0.192,2.605,0,34.603,0,34.603
		s0.096,2.232,2.305,2.232c2.209,0,4.61-1.116,4.61-1.116L187.792,255.454z"/>
	<path style="fill:#2E18E8;" d="M157.404,299.236c1.142,0.692,5.873-0.582,6.955-0.697c2.965-0.316,5.953-0.417,8.914-0.735
		c2.756-0.296,5.512-0.592,8.268-0.888c1.278-0.137,6.05,0.156,6.584-1.21c0.86-2.198,0.012-6.422,0.018-8.814
		c0.009-3.405,0.018-6.81,0.027-10.216c0.018-6.656,0.035-13.311,0.052-19.967c0.001-0.463-0.04-1.009-0.432-1.256
		c-0.275-0.174-0.629-0.133-0.951-0.085c-8.447,1.253-16.862,2.72-25.234,4.398c-1.209,0.242-2.453,0.504-3.471,1.2
		c-2.296,1.569-1.549,4.949-1.506,7.32c0.064,3.522,0.128,7.045,0.192,10.567c0.063,3.476-0.132,6.95-0.174,10.426
		c-0.029,2.414-0.777,7.701,0.578,9.789C157.267,299.134,157.328,299.19,157.404,299.236z"/>
	<path style="fill:#4248F0;" d="M236.121,159.01c0,0.424-10.023,2.553-11.017,2.806c-6.432,1.638-7.843,2.011-11.242,2.863
		c-7.085,1.777-10.627,2.665-11.626,2.862c-3.941,0.775-7.784,1.997-11.72,2.791c-1.3,0.262-3.939,0.776-5.302,2.884
		c-0.374,0.578-0.577,1.161-0.837,2.418c-0.593,2.868-0.622,5.084-0.668,7.136c-0.01,0.436-0.031,1.329,0.017,8.956
		c0.012,1.862,0.039,3.306,0.93,3.814c0.61,0.348,1.376,0.112,2.884-0.372c1.641-0.528,2.945-1.224,3.349-1.488
		c2.235-1.466,4.233-7.657,2.976-15.627c0.008-0.794,0.165-1.825,0.837-2.698c0.571-0.742,1.289-1.077,1.581-1.209
		c3.199-1.449,21.337-4.734,29.58-8.186C228.475,164.865,232.183,162.879,236.121,159.01z"/>
	<path style="fill:#2E18E8;" d="M190.701,174.518c-1.722,2.023-1.364,5.465-1.116,9.767c0.417,7.245,0.038,8.503,1.158,9.174
		c1.149,0.689,2.373-0.143,6.841-1.639c2.449-0.82,4.979-1.377,7.454-2.118c4.258-1.276,25.409-6.864,29.132-7.869
		c0.563-0.152,1.154-0.32,1.566-0.732c0.595-0.595,0.66-1.522,0.689-2.364c0.102-2.956,0.203-5.912,0.305-8.867
		c0.094-2.735,0.188-5.479-0.072-8.203c-0.054-0.567-0.148-1.182-0.565-1.57c-0.706-0.656-1.999-0.239-2.433-0.112
		c-5.854,1.714-8.78,2.571-38.122,11.464c-0.411,0.124-1.845,0.532-3.349,1.674C192.189,173.122,191.338,173.769,190.701,174.518z"
		/>
	<path style="fill:#2E18E8;" d="M332.089,287.814c-0.878-1.053-0.917-2.299-0.948-4.117c-0.12-7.058-0.18-10.587-0.168-10.952
		c0.087-2.763,0.068-4.635,0.029-8.292c-0.066-6.362-0.342-7.964-0.088-12.179c0.418-6.927,1.513-8.387,2.57-9.109
		c1.318-0.9,2.807-0.813,4.558-0.651c7.202,0.664,12.817,2.022,13.309,2.141c7.756,1.871,11.685,2.252,15.092,2.847
		c0.865,0.151,10.201,1.236,10.202,2.361c0,0.231,1.187,1.391,1.352,1.772c0.375,0.863,0.479,1.83,0.55,2.759
		c0.241,3.193,0.069,6.448,0.105,9.649c0.088,7.733,0.177,15.466,0.265,23.199c0.019,1.698,0.329,4.257-1.377,5.333
		c-0.794,0.501-1.822,0.292-2.689,0.136c-1.573-0.282-3.151-0.418-4.748-0.563c-3.525-0.319-7.051-0.629-10.577-0.93
		c-7.343-0.626-14.672-1.833-22.041-1.729C336.284,289.505,333.555,289.573,332.089,287.814z"/>
	<path style="fill:#4248F0;" d="M383.24,250.762c-0.249-0.332-0.613-0.46-1.022-0.616c-1.294-0.494-2.954-0.894-3.905,0.114
		c-0.805,0.854-0.63,2.028-0.57,3.077c0.083,1.443,0.02,2.911,0.029,4.357c0.02,2.904,0.039,5.809,0.059,8.713
		c0.039,5.809,0.078,11.617,0.117,17.426c0.018,2.73,0.037,5.46,0.055,8.19c0.002,0.241,0.008,0.499,0.144,0.699
		c0.171,0.251,0.447,0.339,0.588,0.382c1.826,0.559,2.763,0.837,3.954,0.733c0.372-0.032,0.748-0.077,1.046-0.349
		c0,0,0.322-0.294,0.419-0.837c0.375-2.107-0.974-31.678-0.628-35.58c0.138-1.555-0.286-3.142-0.04-4.683
		C383.534,252.1,383.67,251.336,383.24,250.762z"/>
	<path style="fill:#2E18E8;" d="M395.883,252.542c0.075-0.039,0.155-0.075,0.239-0.107c1.492-0.573,2.831-0.165,3.196-0.069
		c2.456,0.646,25.198,3.002,31.091,4.706c0.331,0.096,1.125,0.338,1.605,1.046c0.549,0.811,0.391,1.797,0.349,2.093
		c-1.518,10.569-0.288,21.357-0.801,32.022c-0.049,1.017-0.084,1.847-0.106,2.372c0.066,0.277,0.309,1.417-0.349,2.163
		c-0.408,0.462-0.981,0.568-1.397,0.628c-4.449,0.646-9.318-0.28-13.764-0.67c-4.218-0.37-8.432-0.78-12.642-1.232
		c-2.445-0.263-5.987,0.393-7.789-1.715c-0.677-0.85-0.821-1.996-0.903-3.08c-0.2-2.668-0.176-3.426-0.152-6.102
		c0.052-5.711,0.104-11.422,0.156-17.133c0.025-2.765,0.077-5.532,0.039-8.297C394.628,257.306,393.774,253.631,395.883,252.542z"/>
	<path style="fill:#4248F0;" d="M436.878,259.513c-0.177-0.355-0.416-0.568-0.643-0.767c-0.235-0.206-0.577-0.455-1.168-0.698
		c-0.394-0.161-0.938-0.262-2.011-0.455c-0.948-0.171-1.498-0.316-1.588-0.071c-0.184,0.499,0.033,1.318,0.033,1.848
		c0,2.898,0.001,5.797,0.001,8.695c0.001,4.86-0.037,9.966,0.003,17.39c0.014,2.657,0.044,6.549,0.116,11.312
		c-0.013,0.256-0.027,1.052,0.409,1.465c0.186,0.177,0.386,0.218,1.11,0.209c1.285-0.015,1.938-0.029,2.454-0.349
		c0.169-0.105,0.587-0.371,0.935-0.907c0.547-0.844,0.571-1.82,0.581-2.546c0.034-2.57,0.051-3.856,0.001-4.359
		c-0.211-2.111,0.063-1.294,0.002-8.718c-0.041-4.914-0.151-4.031-0.116-6.282c0.075-4.79-0.15-9.591,0.117-14.371
		C437.124,260.692,437.163,260.084,436.878,259.513z"/>
	<path style="opacity:0.2;fill:#41466B;" d="M136.843,219.259v33.487h11.162c0,0,3.349,0.186,8.93-8.93
		c5.581-9.116,71.438-99.344,71.438-99.344l-27.906-18.976L136.843,219.259z"/>
	<path style="fill:#1E1F23;" d="M136.843,252.746V224.84l66.973-94.879l-25.673-20.092l-18.976,15.627L73.218,242.7
		c0,0,0,2.511,12.278,3.349C97.775,246.886,136.843,252.746,136.843,252.746z"/>
	<path style="fill:#4248F0;" d="M178.143,96.475l196.455,58.043c0,0,10.418,4.093,20.092,11.162
		c9.674,7.069,112.738,70.322,112.738,70.322l-40.184-4.465l-162.968-35.719l-125.017-92.646L178.143,96.475z"/>
	<path style="fill:#1E1F23;" d="M297.579,190.238l209.849,45.765c0,0-13.395,4.465-37.952,0
		C444.92,231.538,304.276,201.4,304.276,201.4s-15.627-3.349-20.092-10.046C279.719,184.657,297.579,190.238,297.579,190.238z"/>
	<path style="fill:#2E18E8;" d="M73.218,242.7c0,0,11.441,5.302,20.092-4.465c8.651-9.767,84.833-122.784,84.833-122.784
		l108.273,79.252c0,0,8.651,6.139,26.789-1.116L178.143,96.475L73.218,242.7z"/>
	<path style="opacity:0.1;fill:#41466B;" d="M136.656,252.746c0,0,1.81,83.158,9.484,84.833h-10.046L136.656,252.746z"/>
	<path style="fill:#2E18E8;" d="M461.663,357.107v-13.398c-0.807-3.084-2.838-5.035-5.002-6.268l-156.85-4.327v27.906l152.82,1.054
		C458.688,361.665,460.891,359.163,461.663,357.107z"/>
	<path style="fill:#41466B;" d="M210,254v-1c0,0-4-1.583,9-4s62-9,62-9s5.083-0.417,6,1c0.917,1.417-53,15-53,15L210,254z"/>
	<path style="fill:#1E1F23;" d="M237.302,255.687c-0.587-0.868-1.289-1.56-2.016-2.105c-1.191-0.128-2.442-0.048-3.587-0.143
		c-2.196-0.182-4.393-0.364-6.589-0.546c-4.392-0.364-8.784-0.727-13.177-1.091c-0.634-0.053-1.304-0.099-1.875,0.181
		c-1.355,0.664-0.687,3.852-0.686,5.085c0.001,2.093,0.002,4.185,0.004,6.278c0.007,11.626,0.014,23.252,0.022,34.878
		c0.007,11.626,0.014,23.252,0.022,34.878c9.291,1.111,18.583,2.222,27.874,3.333c0-4.299,0-8.597,0.001-12.896
		c0-11.618,0.001-23.236,0.001-34.854C237.296,277.685,237.266,266.686,237.302,255.687z"/>
	<path style="fill:#2E18E8;" d="M289.155,346.788c-0.104-3.561,0.196-6.72-0.558-11.999c-0.192-1.34-0.378-2.306-1.116-3.209
		c-1.571-1.922-4.246-1.849-10.082-1.814c-6.175,0.038-9.265,0.133-12.284,0c-2.883-0.127-5.62-0.135-9.582-0.04
		c-0.852,0.021-1.761,0.046-2.74,0.076c-12.999,0.396-43.937-0.798-49.35,1.453c-5.433,2.259-4.706,10.265-4.163,15.027
		c-1.551,0.204-3.84,0.429-6.627,0.414c-3.5-0.018-6.117-0.653-7.027,3.429c-0.591,2.647-0.191,5.433-0.042,8.105
		c0.215,3.847,0.322,5.77,1.488,7.069c1.956,2.179,5.165,1.923,11.907,1.67c4.57-0.171,9.144-0.2,13.715-0.331
		c7.683-0.22,15.365-0.408,23.05-0.506c15.356-0.197,30.717-0.092,46.065,0.459c1.094,0.039,2.281,0.025,3.335-0.248
		c1.208-0.312,2.928-0.648,3.871-1.974c0.704-0.989,0.704-2.111,0.698-2.651C289.65,356.563,289.231,349.382,289.155,346.788z"/>
</g>
</svg>
