<?xml version="1.0" encoding="iso-8859-1"?>
<!-- Generator: Adobe Illustrator 19.0.1, SVG Export Plug-In . SVG Version: 6.00 Build 0)  -->
<svg version="1.1" id="Layer_1" xmlns="http://www.w3.org/2000/svg" xmlns:xlink="http://www.w3.org/1999/xlink" x="0px" y="0px"
	 viewBox="0 0 660 550" style="enable-background:new 0 0 660 550;" xml:space="preserve">
<path id="black_1_" style="fill:#1E1F23;" d="M441.881,22.676c-5.784,2.159-11.335,4.849-16.553,8.084
	c-42.032,26.06-60.928,84.001-42.235,129.787c18.693,45.786,72.843,73.951,121.038,62.859
	c65.413-15.055,96.492-88.82,72.501-148.678C556.393,24.235,490.825,4.409,441.881,22.676z"/>
<g id="camera_1_">
	<path style="fill:#FFFFFF;" d="M414.555,123.345c0.303-1.411,0.788-2.811,1.487-4.193c8.909-17.621,38.692-22.25,40.884-22.523
		c0.072-0.009,0.13-0.019,0.201-0.034c1.738-0.371,31.959-5.782,64.046,5.296l0.101,0.033c0.81,0.314,19.878,7.817,24.229,19.617
		c0.126,0.342,0.224,0.684,0.323,1.027c0.075-0.535,0.1-0.835,0.1-0.835l0.916-28.75c-8.873-11.107-26.139-19.368-26.328-19.458
		c-0.295-0.163-24-13.087-62.395-5.157c-28.423,5.87-40.121,19.338-44.273,25.915c-0.362,19.323,0.08,21.175,0.08,21.175
		S413.791,118.812,414.555,123.345z"/>
	<path style="fill:#FFFFFF;" d="M457.732,66.314c39.143-8.085,63.425,5.199,63.666,5.335c0.698,0.328,16.104,7.703,25.479,18.212
		c-0.405-3.401-4.195-24.028-36.952-31.935c-35.75-8.629-66,2.092-66,2.092s-29.5,7.322-30,30.334
		c-0.001,0.037-0.001,0.07-0.002,0.107C419.405,83.072,431.745,71.681,457.732,66.314z"/>
	<path style="fill:#FFFFFF;" d="M433.926,152.779c-1.336-3.548-1.923-7.628-1.809-11.397c0.323-10.671,10.166-16.649,18.965-20.449
		c10.493-4.531,22.133-5.867,33.471-5.122c6.175,0.406,12.308,1.426,18.304,2.95c0.023,0.006,0.046,0.012,0.069,0.018
		c8.751,2.233,17.326,6.545,22.59,14.144c5.809,8.385,1.618,20.595-2.736,28.75c-9.699,18.167-31.058,28.607-51.29,24.802
		c-9.426-1.773-18.661-5.407-25.273-12.63C440.815,167.946,436.724,160.211,433.926,152.779z"/>
	<path style="fill:#FFFFFF;" d="M543.637,122.293c-3.932-10.662-21.957-17.971-23.012-18.39
		c-34.074-10.283-62.395-5.229-62.699-5.183c-0.362,0.035-31.313,3.997-40.116,21.409c-1.791,3.542-2.091,7.199-0.892,10.869
		c1.796,5.499,6.635,10.271,11.26,13.786c0.365,0.214,0.757,0.431,1.15,0.648c-0.438-4.179-0.268-9.24,1.951-13.416
		c0.49-3.641,6.42-7.552,8.792-9.31c9.786-7.253,22.715-9.898,34.5-10.687c12.201-0.817,24.567,0.884,36.112,5.111
		c4.335,1.587,8.28,4.237,11.566,7.583c1.22,1.242,3.055,3.117,4.487,5.18c3.227,3.917,3.782,7.157,3.783,7.163
		c0.455,2.702,0.462,5.578,0.142,8.482c1.517-0.995,3.172-2.198,4.955-3.681c2.759-2.685,5.37-6.021,7.423-10.149
		C544.611,128.547,544.808,125.468,543.637,122.293z"/>
	<g>
		<path style="fill:#FFFFFF;" d="M479.05,182.029c-2.098-0.025-12.965-0.607-20.961-9.635c-5.479-6.188-7.704-15.168-5.951-24.023
			c0.998-5.036,3.169-9.24,6.453-12.494c5.553-5.502,12.322-6.318,15.959-6.756c1.131-0.136,2.839-0.342,4.983-0.342
			c6.075,0,11.455,1.663,15.989,4.941c6.94,5.018,9.392,11.986,10.123,14.749c0.156,0.591,3.723,14.682-6.239,25.271
			c-7.039,7.483-16.352,8.292-20.029,8.292L479.05,182.029z"/>
		<path style="fill:#1E1F23;" d="M479.534,131.779c5.43,0,10.218,1.471,14.231,4.372c6.159,4.453,8.332,10.634,8.979,13.078
			c0.138,0.531,3.267,13.112-5.522,22.455c-6.238,6.631-14.558,7.347-17.846,7.347l-0.29-0.002
			c-1.876-0.022-11.594-0.544-18.75-8.624c-4.79-5.409-6.804-13.629-5.255-21.451c0.328-1.655,1.325-6.689,5.622-10.946
			c4.822-4.777,10.927-5.513,14.208-5.908C475.97,131.972,477.57,131.779,479.534,131.779 M479.534,125.779
			c-2.325,0-4.193,0.225-5.342,0.364c-3.778,0.455-11.429,1.377-17.713,7.603c-5.355,5.305-6.785,11.52-7.285,14.043
			c-1.842,9.299,0.319,19.447,6.648,26.595c8.971,10.13,21.079,10.621,23.171,10.646c0.11,0.001,0.231,0.002,0.362,0.002
			c3.454,0,14.089-0.597,22.216-9.236c11.005-11.699,7.174-27.265,6.954-28.095c-0.516-1.95-2.973-10.416-11.266-16.412
			C490.966,126.723,484.294,125.779,479.534,125.779L479.534,125.779z"/>
	</g>
	<g>
		<path style="fill:#1E1F23;" d="M479.347,169.402c-1.135-0.013-7.016-0.329-11.344-5.216c-2.95-3.331-4.144-8.186-3.192-12.984
			c0.534-2.698,1.688-4.94,3.43-6.667c2.945-2.917,6.63-3.361,8.608-3.6c0.633-0.076,1.587-0.191,2.766-0.191
			c3.286,0,6.188,0.893,8.623,2.654c3.736,2.701,5.055,6.45,5.447,7.936c0.021,0.08,1.995,7.928-3.352,13.611
			c-3.786,4.023-8.821,4.458-10.811,4.458C479.522,169.403,479.347,169.402,479.347,169.402z"/>
		<path style="fill:#2E18E8;" d="M479.615,143.743c2.642,0,4.951,0.702,6.865,2.085c3.035,2.194,4.062,5.356,4.298,6.244
			c0.064,0.259,1.527,6.398-2.63,10.817c-2.983,3.171-7.026,3.514-8.625,3.514l-0.14-0.001c-0.56-0.007-5.57-0.182-9.134-4.206
			c-2.297-2.594-3.253-6.584-2.495-10.413c0.155-0.783,0.627-3.165,2.598-5.118c2.214-2.193,5.007-2.53,6.856-2.753
			C477.802,143.841,478.616,143.743,479.615,143.743 M479.615,137.743c-1.36,0-2.453,0.132-3.125,0.213
			c-2.21,0.266-6.685,0.806-10.361,4.447c-3.132,3.103-3.969,6.738-4.261,8.214c-1.077,5.439,0.187,11.376,3.889,15.557
			c5.248,5.926,12.33,6.213,13.554,6.227c0.064,0.001,0.135,0.001,0.212,0.001c2.021,0,8.242-0.349,12.995-5.402
			c6.437-6.843,4.196-15.949,4.068-16.434c-0.302-1.141-1.739-6.093-6.59-9.6C486.302,138.296,482.4,137.743,479.615,137.743
			L479.615,137.743z"/>
	</g>
	<circle style="fill:#FA402A;" cx="479.426" cy="155.279" r="6.5"/>
</g>
<path id="bg_1_" style="fill:#FA4E40;" d="M628.413,336.46c-24.82-7.917-62.258,0.209-81.674,1.292
	c-91.852,5.123-183.123,10.96-275.23,11.334c-43.902,0.181-87.807-0.362-131.694-1.627c-65.501-1.889-95.41-13.006-113.262,5.975
	c-19.001,20.204-14.744,61.089-1.087,89.071c38.931,79.764,169.842,87.729,232.296,91.529
	c81.175,4.939,141.444-10.165,179.711-20.092c125.894-32.658,192.526-90.574,205.542-124.406
	c2.986-7.762,11.295-28.662,1.223-42.313C640.772,342.524,635.586,338.748,628.413,336.46z"/>
<g id="office">
	<path style="fill:#EFEFEF;" d="M282.477,79.338v267.367c53.952,2.21,107.905,4.419,161.857,6.629
		c0.764-72.319,1.528-144.639,2.292-216.958C391.909,117.363,337.193,98.35,282.477,79.338z"/>
	<path style="fill:#FFFFFF;" d="M120.625,339.563l162.968-2.232c0.024-85.999,0.049-171.998,0.074-257.997
		C229,98.556,174.333,117.778,119.667,137c-0.053,25.849-0.105,51.697-0.158,77.546L120.625,339.563z"/>
	<path style="fill:#4248F0;" d="M285.076,333.982c-53.119,1.784-106.279,2.472-159.398,4.256c-1.117,0.038-2.842,0.173-3.865,0.961
		c-0.343,0.264-0.607,0.601-0.743,1.033c-0.16,0.508-0.144,1.053-0.129,1.586c0.058,2.008,0.087,4.016,0.101,6.024
		c0.014,1.959,0.123,3.927,0.11,5.882c-0.012,1.836-0.416,3.815,0.467,5.525c0.742,1.438,2.254,2.317,3.778,2.859
		c3.095,1.101,6.183,0.695,9.372,0.651c3.588-0.05,7.176-0.096,10.764-0.145c11.625-0.157,23.251-0.315,34.876-0.472
		c11.625-0.157,23.251-0.315,34.877-0.472c11.625-0.157,23.251-0.315,34.877-0.472c11.625-0.158,23.289,0.85,34.915,0.692
		C285.075,352.608,285.077,343.261,285.076,333.982z"/>
	<g id="door">
		<path style="fill:#413C4B;" d="M271,243v-13l-26-3c0,0-11-0.75-20,1s-60,10-60,10c-1.422,0.193-3.32,0.525-3.333,1
			c-0.022,0.8,5.307,1.547,7.333,1.833c8.163,1.154,22.08,3.216,41.75,6.167c4.083,1.333,8.167,2.667,12.25,4L271,243z"/>
		<path style="fill:#4248F0;" d="M220,257c-0.003-2.703-0.183-5.523,0.768-8.111c1.831-4.985,7.723-4.956,12.206-5.602
			c5.324-0.767,10.668-1.39,16.012-1.993c7.331-0.827,14.67-1.594,22.014-2.294v96l-50.914,1C220.086,336,220.001,257.983,220,257z"
			/>
		<path style="fill:#FA402A;" d="M223,333v-69c0,0,0.167-4.667,5-6c4.833-1.333,13-2,13-2s5.667-1.167,6,3c0.333,4.167,0,76,0,76
			L223,333z"/>
		<path style="fill:#FA402A;" d="M250,259c0,0,0-3.667,4-5c4-1.333,17-2,17-2v85l-21-2V259z"/>
		<path style="fill:#1E1F23;" d="M220.095,247.623c-0.608-0.95-1.335-1.707-2.088-2.304c-1.233-0.141-2.529-0.053-3.714-0.157
			c-2.275-0.199-4.549-0.398-6.823-0.597c-4.548-0.398-9.097-0.796-13.646-1.194c-0.656-0.057-1.351-0.108-1.942,0.198
			c-1.403,0.727-0.711,4.216-0.711,5.565c0.001,2.29,0.003,4.581,0.004,6.871c0.007,12.724,0.015,25.449,0.023,38.173
			c0.007,12.724,0.015,25.449,0.022,38.173c9.622,1.216,19.244,2.432,28.866,3.647c0-4.705,0-9.41,0.001-14.115
			c0-12.716,0.001-25.432,0.001-38.147C220.088,271.7,220.058,259.661,220.095,247.623z"/>
	</g>
	<path style="fill:#2E18E8;" d="M445.445,357.975v-13.398c-0.807-3.084-2.838-5.035-5.002-6.268l-156.85-4.327v27.905l152.82,1.054
		C442.47,362.533,444.673,360.031,445.445,357.975z"/>
	<path style="fill:#2E18E8;" d="M272.937,347.655c-0.104-3.561,0.196-6.72-0.558-11.999c-0.192-1.34-0.378-2.306-1.116-3.209
		c-1.571-1.922-4.246-1.849-10.082-1.814c-6.175,0.038-9.265,0.133-12.284,0c-2.883-0.127-5.62-0.135-9.582-0.04
		c-0.852,0.021-1.761,0.046-2.74,0.076c-12.999,0.396-43.937-0.798-49.35,1.453c-5.433,2.259-4.706,10.265-4.163,15.027
		c-1.551,0.204-3.84,0.429-6.627,0.414c-3.5-0.018-6.117-0.653-7.027,3.429c-0.591,2.647-0.191,5.433-0.042,8.105
		c0.215,3.847,0.322,5.77,1.488,7.069c1.956,2.179,5.165,1.923,11.907,1.67c4.57-0.171,9.144-0.2,13.715-0.331
		c7.683-0.22,15.365-0.408,23.05-0.506c15.356-0.197,30.717-0.092,46.065,0.459c1.094,0.039,2.281,0.025,3.335-0.248
		c1.208-0.312,2.928-0.648,3.871-1.974c0.704-0.989,0.704-2.111,0.698-2.651C273.431,357.431,273.013,350.25,272.937,347.655z"/>
	<g>
		<path style="fill:#2E18E8;" d="M286.25,300.25c-3.404-3.073-2.467-7.164-2.75-19.75c-0.158-7.004-0.648-14.632,0.852-22.888
			c0.36-1.983,1.077-5.321,3.82-7.373c1.455-1.089,3.122-1.476,4.762-1.694c4.4-0.585,9.371-0.056,15.218,0.63
			c24.048,2.82,42.792,5.923,44.436,6.195c25.896,4.282,39.014,5.841,50.388,7.477c2.888,0.415,34.061,4.312,34.063,5.524
			c0,0.249,3.963,1.846,4.515,2.305c0.637,0.53,0.997,1.092,1.151,1.31c1.182,1.676,1.431,3.393,1.547,4.264
			c0.777,5.821,0.75,7.75,0.75,7.75c-0.065,4.565,0.049,15.328,0.25,19.75c0.106,2.344,0.073,3.533-0.75,4.75
			c-2.266,3.351-6.412,2.736-9.895,2.484c-4.861-0.351-9.736-0.549-14.604-0.809c-26.809-1.427-53.617-2.886-80.431-4.234
			c-8.915-0.448-17.83-0.892-26.745-1.345c-6.646-0.338-12.987-0.019-19.576-1.597C289.663,302.141,287.837,301.682,286.25,300.25z"
			/>
		<path style="fill:#4248F0;" d="M398.282,261.757c-0.287-0.37-0.707-0.512-1.178-0.685c-1.492-0.55-3.406-0.995-4.502,0.127
			c-0.928,0.95-0.726,2.258-0.657,3.425c0.095,1.607,0.023,3.24,0.034,4.85c0.023,3.233,0.045,6.465,0.068,9.698
			c0.045,6.465,0.09,12.931,0.135,19.396c0.021,3.039,0.042,6.077,0.063,9.116c0.002,0.269,0.009,0.555,0.166,0.777
			c0.197,0.28,0.516,0.377,0.678,0.425c2.105,0.622,3.186,0.931,4.559,0.816c0.429-0.036,0.863-0.085,1.207-0.388
			c0,0,0.371-0.327,0.483-0.932c0.432-2.345-1.123-35.259-0.724-39.602c0.159-1.731-0.33-3.497-0.046-5.213
			C398.62,263.246,398.778,262.396,398.282,261.757z"/>
		<path style="fill:#4248F0;" d="M445.389,270.892c-0.208-0.375-0.488-0.601-0.754-0.811c-0.276-0.218-0.677-0.481-1.372-0.738
			c-0.462-0.171-1.101-0.276-2.36-0.481c-1.113-0.181-1.759-0.334-1.865-0.075c-0.216,0.528,0.039,1.394,0.039,1.954
			c0.001,3.064,0.001,6.129,0.002,9.193c0.001,5.138-0.044,10.537,0.003,18.386c0.017,2.809,0.052,6.925,0.136,11.96
			c-0.015,0.27-0.032,1.112,0.48,1.549c0.219,0.187,0.453,0.23,1.303,0.221c1.508-0.016,2.275-0.03,2.88-0.369
			c0.199-0.111,0.689-0.392,1.097-0.959c0.642-0.892,0.67-1.924,0.682-2.691c0.04-2.718,0.06-4.077,0.001-4.609
			c-0.248-2.232,0.074-1.368,0.002-9.218c-0.048-5.195-0.177-4.262-0.136-6.642c0.088-5.064-0.176-10.141,0.137-15.194
			C445.678,272.138,445.723,271.496,445.389,270.892z"/>
		<path style="fill:#4248F0;" d="M343.245,253.731c-0.296-0.411-0.73-0.568-1.216-0.761c-1.541-0.611-3.516-1.104-4.648,0.141
			c-0.959,1.055-0.75,2.507-0.678,3.803c0.098,1.784,0.023,3.598,0.035,5.385c0.023,3.59,0.047,7.18,0.07,10.769
			c0.046,7.18,0.093,14.359,0.139,21.539c0.022,3.374,0.044,6.749,0.066,10.123c0.002,0.298,0.009,0.617,0.171,0.863
			c0.203,0.311,0.533,0.419,0.7,0.472c2.174,0.691,3.29,1.034,4.708,0.907c0.443-0.04,0.891-0.095,1.246-0.431
			c0,0,0.383-0.363,0.498-1.035c0.446-2.604-1.159-39.155-0.747-43.978c0.164-1.922-0.341-3.883-0.048-5.788
			C343.595,255.385,343.757,254.441,343.245,253.731z"/>
	</g>
	<g>
		<path style="fill:#2E18E8;" d="M282.5,205.875c-3.511-3.716,0.202-8.328,0.704-22.077c0.509-13.938,0.763-20.907-0.454-25.923
			c-0.32-1.32-1.083-4.186,0.375-5.75c1.608-1.726,5.013-0.895,9.5,0.125c5.062,1.151,10.25,1.783,15.23,3.249
			c16.082,4.736,18.69,4.25,44.136,11.565c0.13,0.037,0.23,0.066,0.299,0.086c25.896,7.462,39.014,10.631,50.388,13.663
			c2.888,0.77,34.061,8.494,34.063,9.707c0,0.249,3.963,2.333,4.515,2.859c0.637,0.608,0.997,1.214,1.151,1.452
			c1.182,1.821,1.431,3.569,1.547,4.454c0.777,5.917,0.75,7.842,0.75,7.842c-0.065,4.558,0.049,15.334,0.25,19.781
			c0.106,2.357,0.073,3.542-0.75,4.658c-2.266,3.073-6.412,1.948-9.895,1.27c-7.354-1.434-11.153-1.386-14.604-2.602
			c-1.058-0.373-23.524-4.16-68.455-11.734c-25.53-4.303-38.295-6.455-38.75-6.5c-6.81-0.671-13.472-2.432-20.25-3.375
			C286.164,207.778,284.182,207.656,282.5,205.875z"/>
		<path style="fill:#4248F0;" d="M396.868,179.517c-0.287-0.362-0.707-0.501-1.178-0.671c-1.492-0.539-3.406-0.974-4.502,0.125
			c-0.928,0.931-0.726,2.212-0.657,3.355c0.095,1.574,0.023,3.174,0.034,4.751c0.023,3.167,0.045,6.334,0.068,9.501
			c0.045,6.334,0.09,12.668,0.135,19.002c0.021,2.977,0.042,5.954,0.063,8.931c0.002,0.263,0.009,0.544,0.166,0.762
			c0.197,0.274,0.516,0.369,0.678,0.416c2.105,0.61,3.186,0.912,4.559,0.8c0.429-0.035,0.863-0.084,1.207-0.38
			c0,0,0.371-0.32,0.483-0.913c0.432-2.297-1.123-34.543-0.724-38.798c0.159-1.696-0.33-3.426-0.046-5.107
			C397.206,180.976,397.364,180.144,396.868,179.517z"/>
		<path style="fill:#4248F0;" d="M446.438,194.301c-0.208-0.367-0.488-0.587-0.754-0.793c-0.276-0.213-0.677-0.47-1.372-0.721
			c-0.462-0.167-1.101-0.27-2.36-0.47c-1.113-0.177-1.759-0.326-1.865-0.074c-0.216,0.516,0.039,1.362,0.039,1.909
			c0.001,2.994,0.001,5.988,0.002,8.981c0.001,5.02-0.044,10.294,0.003,17.963c0.017,2.744,0.052,6.765,0.136,11.684
			c-0.015,0.264-0.032,1.087,0.48,1.513c0.219,0.182,0.453,0.225,1.303,0.216c1.508-0.015,2.275-0.03,2.88-0.36
			c0.199-0.108,0.689-0.383,1.097-0.937c0.642-0.872,0.67-1.88,0.682-2.629c0.04-2.655,0.06-3.983,0.001-4.503
			c-0.248-2.181,0.074-1.336,0.002-9.005c-0.048-5.076-0.177-4.164-0.136-6.489c0.088-4.948-0.176-9.907,0.137-14.844
			C446.727,195.519,446.773,194.891,446.438,194.301z"/>
		<path style="fill:#4248F0;" d="M342.949,164.243c-0.296-0.411-0.73-0.568-1.216-0.761c-1.541-0.611-3.516-1.104-4.648,0.141
			c-0.959,1.055-0.75,2.507-0.678,3.803c0.098,1.784,0.023,3.598,0.035,5.385c0.023,3.59,0.047,7.18,0.07,10.769
			c0.046,7.18,0.093,14.359,0.139,21.539c0.022,3.374,0.044,6.749,0.066,10.123c0.002,0.298,0.009,0.617,0.171,0.863
			c0.203,0.311,0.533,0.419,0.7,0.472c2.174,0.691,3.29,1.034,4.708,0.907c0.443-0.04,0.891-0.095,1.246-0.431
			c0,0,0.383-0.363,0.498-1.035c0.446-2.604-1.159-39.155-0.747-43.978c0.164-1.922-0.341-3.883-0.048-5.788
			C343.298,165.897,343.46,164.953,342.949,164.243z"/>
		<path style="fill:#2E18E8;" d="M285.5,204.471c2.416-3.594-0.88-7.523-1.957-20.759c-0.155-1.903-0.331-4.137-0.293-7.162
			c0.057-4.57,0.554-7.162,1.375-14.923c0.883-8.347,0.677-8.846,0.375-9.263c-2.001-2.763-7.722-1.262-26.108,3.911
			c-20.08,5.65-30.749,8.79-44.136,13.106c-0.13,0.042-0.23,0.074-0.3,0.097c-9.707,3.136-17.619,5.606-24.316,7.65
			c-14.889,4.543-22.323,6.847-26.071,7.773c-11.784,2.912-23.081,7.539-34.735,10.933c0,0-4.499,1.31-6.333,4.333
			c-0.112,0.185-0.221,0.381-0.333,0.667c-0.571,1.445-0.054,2.528,0.126,3.98c0.248,1.99-0.75-0.261-0.75,7.868v0
			c0.065,4.555-0.049,15.335-0.25,19.789c-0.106,2.361-0.073,3.545,0.75,4.631c2.266,2.994,6.412,1.725,9.895,0.924
			c4.861-1.117,9.736-2.085,14.604-3.112c26.81-5.655,53.617-11.342,80.431-16.918c25.477-5.299,25.252-5.348,26.745-5.563
			c2.84-0.409,15.558-3.159,20.908-4.225C282.183,206.802,284.189,206.422,285.5,204.471z"/>
		<path style="fill:#4248F0;" d="M159.468,185.949c0.287-0.357,0.707-0.494,1.178-0.661c1.492-0.53,3.406-0.959,4.502,0.123
			c0.928,0.917,0.726,2.178,0.657,3.304c-0.095,1.55-0.023,3.126-0.034,4.678c-0.023,3.118-0.045,6.237-0.068,9.355
			c-0.045,6.237-0.09,12.474-0.135,18.711c-0.021,2.931-0.042,5.863-0.063,8.794c-0.002,0.259-0.009,0.536-0.166,0.75
			c-0.197,0.27-0.516,0.364-0.678,0.41c-2.105,0.6-3.186,0.898-4.559,0.788c-0.429-0.035-0.863-0.082-1.207-0.375
			c0,0-0.371-0.315-0.483-0.899c-0.432-2.262,1.123-34.013,0.724-38.203c-0.159-1.67,0.33-3.373,0.046-5.028
			C159.13,187.386,158.972,186.566,159.468,185.949z"/>
		<path style="fill:#4248F0;" d="M120.308,199.79c0.208-0.367,0.488-0.587,0.754-0.793c0.276-0.213,0.677-0.47,1.372-0.721
			c0.462-0.167,1.101-0.27,2.36-0.47c1.113-0.177,1.759-0.326,1.865-0.074c0.216,0.516-0.039,1.362-0.039,1.909
			c-0.001,2.994-0.001,5.988-0.002,8.981c-0.001,5.02,0.044,10.294-0.003,17.963c-0.017,2.744-0.052,6.765-0.136,11.684
			c0.015,0.264,0.032,1.087-0.48,1.513c-0.219,0.182-0.453,0.225-1.303,0.216c-1.508-0.015-2.275-0.03-2.88-0.36
			c-0.199-0.108-0.689-0.383-1.097-0.937c-0.642-0.872-0.67-1.88-0.682-2.629c-0.04-2.655-0.06-3.983-0.001-4.503
			c0.248-2.181-0.074-1.336-0.002-9.005c0.048-5.076,0.177-4.164,0.136-6.489c-0.088-4.947,0.176-9.907-0.137-14.844
			C120.02,201.007,119.974,200.379,120.308,199.79z"/>
		<path style="fill:#4248F0;" d="M213.388,169.346c0.296-0.397,0.73-0.549,1.216-0.736c1.541-0.59,3.516-1.068,4.648,0.137
			c0.959,1.02,0.75,2.423,0.678,3.677c-0.098,1.725-0.023,3.478-0.035,5.206c-0.023,3.47-0.047,6.94-0.07,10.41
			c-0.046,6.94-0.093,13.88-0.139,20.821c-0.022,3.262-0.044,6.524-0.066,9.786c-0.002,0.288-0.009,0.596-0.171,0.835
			c-0.203,0.3-0.533,0.405-0.7,0.456c-2.174,0.668-3.29,1-4.708,0.876c-0.443-0.038-0.891-0.092-1.246-0.417
			c0,0-0.383-0.351-0.498-1c-0.446-2.517,1.159-37.849,0.747-42.511c-0.164-1.858,0.341-3.754,0.048-5.595
			C213.038,170.945,212.876,170.033,213.388,169.346z"/>
		<path style="fill:#4248F0;" d="M278,153c1.007-1.817,2.451-2.315,5.259-2.001c2.656,0.296,3.287,1.251,3.74,2.001
			c2.816,4.657,2.884,10.352,2.702,15.625c-0.274,7.962-0.302,15.929-0.442,23.893c-0.088,4.987,1.597,17.169-6.92,15.873
			c-2.412-0.367-4.917-1.862-5.34-4.391c-1.163-6.959-0.505-14.544-0.576-21.624c0-5.37-0.107-10.742-0.16-16.112
			C276.22,161.838,275.76,157.044,278,153z"/>
		<path style="opacity:0.2;fill:#41466B;" d="M289.506,168.833c0.182-5.181,0.114-10.776-2.702-15.352
			c-0.394-0.64-0.926-1.432-2.804-1.82v56.297c6.394-0.667,4.982-11.143,5.063-15.648
			C289.204,184.484,289.232,176.655,289.506,168.833z"/>
	</g>
	<g>
		<path style="fill:#2E18E8;" d="M127.126,315.517c0.708-0.004,1.243-0.039,1.39-0.058c6.731-0.851,13.521-1.225,20.234-2.209
			c0.432-0.063-0.205,0.032,25.692-2.846c6.308-0.701,9.508-1.104,11.743-3.701c1.903-2.212,1.179-3.736,1.815-13.203
			c0,0,0.987-14.706,0.169-23.584c-0.036-0.389-0.128-1.298-0.659-2.28c0,0-1.102-2.042-4.01-3.136c-4.983-1.873-19.464,1.539-28,3
			c-11.687,2-15.805,3.021-24.041,5.063c-1.324,0.328-3.537,0.921-5.461,2.769c-3.633,3.488-3.138,9.166-3.378,13.631
			c-0.357,6.656-0.581,13.312-0.672,19.962c-0.028,2.049,0.073,4.366,1.615,5.632C124.527,315.349,125.818,315.524,127.126,315.517z
			"/>
		<path style="fill:#4248F0;" d="M120.562,275.79c0.208-0.367,0.488-0.587,0.754-0.793c0.276-0.213,0.677-0.47,1.372-0.721
			c0.462-0.167,1.101-0.27,2.36-0.47c1.113-0.177,1.759-0.326,1.865-0.074c0.216,0.516-0.039,1.362-0.039,1.909
			c-0.001,2.994-0.001,5.988-0.002,8.981c-0.001,5.02,0.044,10.294-0.003,17.963c-0.017,2.744-0.052,6.765-0.136,11.684
			c0.015,0.264,0.032,1.087-0.48,1.513c-0.219,0.182-0.453,0.225-1.303,0.216c-1.508-0.015-2.275-0.03-2.88-0.36
			c-0.199-0.108-0.689-0.383-1.097-0.937c-0.642-0.872-0.67-1.88-0.682-2.629c-0.04-2.655-0.06-3.983-0.001-4.503
			c0.248-2.181-0.074-1.336-0.002-9.005c0.048-5.076,0.177-4.164,0.136-6.489c-0.088-4.948,0.176-9.907-0.137-14.844
			C120.273,277.007,120.227,276.379,120.562,275.79z"/>
	</g>
	<path style="opacity:0.1;fill:#41466B;" d="M120.524,163c0.738-0.006,1.376,34.105,5.123,86
		c2.705,37.462,5.887,68.336,8.274,89.447c-4.389,0.296-8.777,0.591-13.165,0.887C119.383,194.91,119.81,163.006,120.524,163z"/>
	<path style="opacity:0.2;fill:#41466B;" d="M444,182.723c-15.819,28.012-31.819,55.958-48,83.84
		c-16.324,28.129-32.827,56.183-49.508,84.162l99.953-8.595V173.667c-0.227,1.372-0.533,2.841-0.945,4.391
		C445.052,179.743,444.538,181.301,444,182.723z"/>
	<g id="roof">
		<path style="fill:#1E1F23;" d="M299,91.045v-44c0,0,1.154-3,5.769-3s5.769,3,5.769,3v48H299V91.045z"/>
		<path style="fill:#1E1F23;" d="M317.462,104.045v-44c0,0,1.154-3,5.769-3c4.615,0,5.769,3,5.769,3v48h-11.538V104.045z"/>
		<path style="fill:#4248F0;" d="M119.691,183.912l158-54c0,0,7.5-2,11,0s156,53,156,53s6.5,0.5,7-3s0-42,0-42l-161-66
			c0,0-5.333-4-13,0s-155,64-155,64s-4.333,1-5,8c-0.667,7,0,27,0,27S116.691,185.246,119.691,183.912z"/>
		<path style="fill:#2E18E8;" d="M451.778,137.823l-161-66c0,0-2.978-2.23-7.68-1.692l0.708,58.812
			c1.816-0.054,3.67,0.136,4.972,0.879c3.5,2,156,53,156,53s6.5,0.5,7-3S451.778,137.823,451.778,137.823z"/>
		<path style="fill:#1E1F23;" d="M340.234,138.635c-7.2-2.149-14.416-4.276-21.553-6.718c-12.363-4.23-29.547-12.148-42.681-7.872
			c-21.5,7-62.285,21.443-118,42c-2.851,1.052-24.25,8.375-39,14c-0.484,0.185-2.125,0.25-1,3c0.483,1.182,3.059,0.866,3.167,0.667
			c52.175-17.933,104.35-35.866,156.525-53.799c0,0,7.5-2,11,0c3.5,2,156,53,156,53s6.5,0.5,7-3
			c0.097-0.677,0.156-2.666,0.188-5.428c-19.861-6.415-39.722-12.83-59.584-19.244c-12.875-4.158-25.75-8.317-38.624-12.475
			C349.214,141.325,344.727,139.976,340.234,138.635z"/>
	</g>
</g>
</svg>
