<?xml version="1.0" encoding="iso-8859-1"?>
<!-- Generator: Adobe Illustrator 19.0.1, SVG Export Plug-In . SVG Version: 6.00 Build 0)  -->
<svg version="1.1" id="Layer_1" xmlns="http://www.w3.org/2000/svg" xmlns:xlink="http://www.w3.org/1999/xlink" x="0px" y="0px"
	 viewBox="0 0 660 550" style="enable-background:new 0 0 660 550;" xml:space="preserve">
<path id="bg_2_" style="fill:#FA4E40;" d="M628.337,337.46c-24.82-7.917-62.258,0.209-81.674,1.292
	c-91.852,5.123-183.123,10.96-275.23,11.334c-43.902,0.181-87.807-0.362-131.694-1.627c-65.501-1.889-95.41-13.006-113.262,5.975
	c-19.001,20.204-14.744,61.089-1.087,89.071c38.931,79.764,169.842,87.729,232.296,91.529
	c81.175,4.939,141.444-10.165,179.711-20.092c125.894-32.658,192.526-90.574,205.542-124.406
	c2.986-7.762,11.295-28.662,1.223-42.313C640.696,343.524,635.51,339.748,628.337,337.46z"/>
<path id="black_2_" style="fill:#1E1F23;" d="M441.731,24.041c-5.784,2.159-11.335,4.849-16.553,8.084
	c-42.032,26.06-60.928,84.001-42.235,129.787c18.693,45.786,72.843,73.951,121.038,62.859
	c65.413-15.055,96.492-88.82,72.501-148.678C556.242,25.601,490.675,5.775,441.731,24.041z"/>
<g id="camera_2_">
	<path style="fill:#1E1F23;" d="M418.445,99.872l0.184-0.084c0-0.02-0.002-0.039-0.002-0.059
		C418.567,99.777,418.504,99.824,418.445,99.872z"/>
	<path style="fill:#4248F0;" d="M524.215,167.145c-0.078,0.096-0.152,0.198-0.231,0.293
		C523.985,167.438,524.086,167.343,524.215,167.145z"/>
	<path style="fill:#FFFFFF;" d="M543.219,77.186c0,0-5.096-12.001-38.961-18.248c-33.865-6.247-68.387,3.288-78.909,8.877
		c-10.521,5.589-8.877,14.302-8.877,14.302l1.973,17.754c-2.137-13.809,18.741-17.754,18.741-17.754s13.151-4.603,42.413-4.932
		c29.262-0.329,41.92,5.425,41.92,5.425s21.042,6.411,20.22,12.329c-0.218,1.573-0.566,2.612-0.957,3.307
		c0.016-3.942-3.975-6.759-3.975-6.759s-18.412-11.836-51.29-12.329c-32.879-0.493-51.29,4.11-60.168,9.864
		c-5.864,3.801-6.778,8.174-6.723,10.706c0,0.02,0.002,0.039,0.002,0.059c0.035,1.265,0.31,2.057,0.31,2.057l1.581,11.385
		l0.885,6.369c-1.48-15.453,6.904-19.727,6.904-19.727c15.289-9.206,51.291,17.754,51.291,17.754s18.576,13.973,34.029,29.591
		c12.335,12.466,11.577,17.91,10.769,19.601c-0.062,0.131-0.124,0.239-0.181,0.327c10.144-12.548,11.606-34.723,11.606-34.723
		s3.842-25.328,4.773-32.292c0.279-0.528,0.501-1.103,0.652-1.738C545.685,79.652,543.219,77.186,543.219,77.186z"/>
	<path style="fill:#FFFFFF;" d="M516.587,153.629c-7.398-9.535-17.754-18.248-17.754-18.248s-35.838-31.399-51.784-28.111
		c0,0-14.467,1.315-16.768,27.125c-0.302,3.389-0.107,6.641,0.443,9.741c3.639,20.502,23.229,34.152,23.229,34.152
		s20.385,17.261,45.372,4.932c0,0,8.354-3.322,16.459-11.867c1.271-1.34,2.536-2.804,3.761-4.408
		C519.546,166.944,523.985,163.163,516.587,153.629z M489.462,178.781c-1.719,5.234-6.815,6.607-11.691,6.607
		c-5.385,0-10.502-1.675-10.502-1.675c-30.248-13.645-34.522-36.495-34.522-36.495c-0.036-0.221-0.059-0.428-0.09-0.643
		c-2.288-15.973,8.76-17.145,12.026-17.145c0.556,0,0.886,0.034,0.886,0.034c22.193,1.973,36.988,23.673,36.988,23.673
		s4.784,6.661,6.79,14.376C490.315,171.233,490.639,175.197,489.462,178.781z"/>
	<path style="fill:#FFFFFF;" d="M482.702,165.525c-1.523-3.939-3.633-7.441-4.789-9.049l-0.042-0.058l-0.04-0.059
		c-0.128-0.185-13.616-19.495-32.768-21.197l-0.017-0.002c-0.063-0.004-0.189-0.01-0.363-0.01c-0.825,0-3.634,0.139-5.154,1.924
		c-1.435,1.686-1.832,4.842-1.151,9.132c0.066,0.312,0.392,1.729,1.253,3.865c2.584,6.41,9.989,19.302,29.669,28.281
		c0.986,0.291,4.721,1.315,8.471,1.315c5.379,0,6.016-1.941,6.256-2.671C485.122,173.663,484.194,169.384,482.702,165.525z
		 M470.744,174.045c-5.204,1.296-10.035-1.993-13.833-5.128c-5.032-4.155-10.697-9.884-11.754-16.688
		c-0.085-0.549-0.15-1.103-0.173-1.666c-0.091-2.297,0.483-4.536,1.685-6.22c1.402-1.963,3.657-3.171,6.704-2.834
		c5.606,0.62,10.983,5.004,14.818,8.847c3.634,3.641,7.638,8.206,8.836,13.354c0.009,0.04,0.022,0.078,0.03,0.118
		C478.094,168.446,475.359,172.896,470.744,174.045z"/>
	<path style="fill:#2E18E8;" d="M477.059,163.828c-0.009-0.04-0.021-0.078-0.03-0.118c-1.198-5.148-5.202-9.713-8.836-13.354
		c-3.835-3.843-9.213-8.227-14.818-8.847c-3.048-0.337-5.303,0.871-6.704,2.834c-1.202,1.684-1.777,3.923-1.685,6.22
		c0.022,0.563,0.087,1.117,0.173,1.666c1.057,6.804,6.723,12.533,11.754,16.688c3.798,3.135,8.629,6.424,13.833,5.128
		C475.359,172.896,478.094,168.446,477.059,163.828z M473.434,166.698c-0.825,1.378-2.444,1.894-3.206,2.137
		c-3.208,1.023-6.203-0.587-9.069-2.127c-4.702-2.527-7.244-5.742-9.178-8.298c-1.049-1.387-1.996-2.893-2.532-4.537
		c-0.112-0.344-0.213-0.691-0.285-1.047c-0.734-3.599,0.853-6.558,4.63-6.809c2.991-0.199,5.521,0.89,7.218,1.932
		c5.098,3.131,11.181,9.664,12.628,14.635C474.101,164.167,474.096,165.592,473.434,166.698z"/>
	<path style="fill:#FA402A;" d="M466.772,157.49c-0.532-0.957-3.006-3.571-5.375-4.927c-1.68-0.962-3.307-1.291-4.152,0.052
		c-0.808,1.285-0.336,2.915,0.639,4.41c1.198,1.839,3.157,3.473,4.453,4.001c1.716,0.699,3.884,0.475,4.669-0.723
		C467.432,159.654,467.458,158.724,466.772,157.49z"/>
</g>
<g id="business">
	<path style="fill:#413C4B;" d="M167.003,269l-26,4c0,0-5.25,2.125-2,5S167.003,269,167.003,269z"/>
	<g>
		<path style="fill:#1E1F23;" d="M176.219,60.793c5.504-2.724,12.705-4.807,21.889-4.807c0.223,0,0.446,0.001,0.672,0.004
			c8.244,0.09,14.684,2.186,19.687,5.096c-0.08-3.44-0.351-7.007-1.293-10.136c-3.524-11.696-20.92-11.123-30.066-8.081
			c-3.555,1.182-6.923,3.332-8.832,6.555c-1.877,3.17-2.167,7.023-2.068,10.705C176.214,60.35,176.213,60.571,176.219,60.793z"/>
		<path style="fill:#2E18E8;" d="M198.626,69.988c-11.773-0.114-18.744,4.229-22.259,7.404c-0.102,20.388-1.121,40.874-1.525,61.205
			c-0.446,22.464-0.893,44.928-1.339,67.391l48-9c0,0-2.072-81.267-2.772-116.951C215.957,75.879,210.06,70.114,198.626,69.988z"/>
	</g>
	<g>
		<path style="fill:#1E1F23;" d="M236.493,86.413c5.045-2.497,11.646-4.407,20.065-4.407c0.204,0,0.409,0.001,0.616,0.004
			c7.557,0.083,13.46,2.004,18.046,4.671c-0.073-3.154-0.321-6.423-1.186-9.291c-3.231-10.722-19.177-10.196-27.561-7.408
			c-3.258,1.083-6.346,3.054-8.096,6.009c-1.721,2.906-1.987,6.437-1.896,9.813C236.488,86.007,236.487,86.21,236.493,86.413z"/>
		<path style="fill:#2E18E8;" d="M257.032,94.842c-10.792-0.104-17.182,3.877-20.404,6.787c-0.093,18.689-1.028,37.468-1.398,56.105
			c-0.409,20.592-0.818,41.184-1.227,61.775l44-8.25c0,0-1.899-74.495-2.541-107.205C272.919,100.242,267.514,94.957,257.032,94.842
			z"/>
	</g>
	<g>
		<path style="fill:#1E1F23;" d="M296.266,108.003c4.587-2.27,10.588-4.006,18.241-4.006c0.186,0,0.372,0.001,0.56,0.003
			c6.87,0.075,12.237,1.822,16.406,4.246c-0.066-2.867-0.292-5.839-1.078-8.446c-2.937-9.747-17.433-9.269-25.055-6.734
			c-2.962,0.985-5.769,2.776-7.36,5.463c-1.565,2.642-1.806,5.852-1.723,8.921C296.262,107.634,296.261,107.819,296.266,108.003z"/>
		<path style="fill:#2E18E8;" d="M314.939,115.666c-9.811-0.095-15.62,3.524-18.549,6.17c-0.085,16.99-0.934,34.062-1.271,51.004
			c-0.372,18.72-0.744,37.44-1.116,56.16l40-7.5c0,0-1.726-67.722-2.31-97.459C329.381,120.575,324.467,115.771,314.939,115.666z"/>
	</g>
	<g>
		<path style="fill:#2E18E8;" d="M367.003,232l-56-67c18.167-4.917,36.333-9.833,54.5-14.75c2.504,9.178,5.772,22.47,8.5,38.75
			c3.053,18.222,7.122,43.281,0.771,46.372C373.246,236.115,370.79,235.136,367.003,232z"/>
		<path style="fill:#2E18E8;" d="M430.031,254l-56-67l51-14c0,0,10.75,7,12,38S446.031,267.25,430.031,254z"/>
		<g>
			<polygon style="fill:#EFEFEF;" points="286.003,362 286.003,131 365.003,229 365.003,155 427.003,243 427.003,177 475.003,251 
				475.003,360 			"/>
			<polygon style="opacity:0.2;fill:#41466B;" points="427.003,177 427.003,243 408.863,217.253 329.003,361 328.396,361.551 
				475.003,360 475.003,251 			"/>
			<polygon style="fill:#FFFFFF;" points="288.003,362 288.003,129 114.003,190 116.003,360 			"/>
		</g>
		<path style="opacity:0.1;fill:#41466B;" d="M116.003,191l-2-1l2,170l18-2C134.003,358,119.753,327.25,116.003,191z"/>
		<path style="fill:#2E18E8;" d="M469.889,354c0,0,4.769,0.333,5.109,4s1.022,8-4.087,8c-5.109,0-182.908,0-182.908,0v-14
			L469.889,354z"/>
		<path style="fill:#4248F0;" d="M116.099,363.963c-0.605-1.63-0.097-4.414-0.097-5.963c0,0,0-4.333,5-4c5,0.333,163-2,163-2h4v14
			h-163c-2.267,0-6.856,0.643-8.522-1.355C116.321,364.453,116.196,364.223,116.099,363.963z"/>
	</g>
	<path style="fill:#1E1F23;" d="M151.169,276.084c-3.389-0.722-7.167-0.813-11.167-1.083c0,0-2.833-0.451-3,5.417
		c-0.2,7.044,0,85.583,0,85.583h12C149.725,336.028,150.447,306.056,151.169,276.084z"/>
	<path style="fill:#FA402A;" d="M148.003,366v-86.726c0,0,0.167-6.324,5-7.588s51-8.673,51-8.673s4.833-1.084,5,2.168
		c0.167,3.252,0,100.818,0,100.818H148.003z"/>
	<g>
		<path style="fill:#4248F0;" d="M209.068,309.375l-61.065,4.121v11.484l61.052-3.054
			C209.06,317.818,209.064,313.589,209.068,309.375z"/>
		<path style="fill:#4248F0;" d="M209.05,269.656l-61.047,8.767v10.735l61.071-7.322C209.07,276.846,209.063,272.63,209.05,269.656z
			"/>
		<path style="fill:#4248F0;" d="M148.003,306.495l61.07-4.121c0.003-4.706,0.004-9.284,0.004-13.536l-61.074,7.322V306.495z"/>
		<path style="fill:#4248F0;" d="M209.028,342.044c0.006-3.9,0.013-8.353,0.019-13.116l-61.043,3.054v10.984L209.028,342.044z"/>
		<path style="fill:#4248F0;" d="M148.003,350.173V360l61-1.223c0,0,0.006-3.694,0.014-9.731L148.003,350.173z"/>
	</g>
	<path style="fill:#4248F0;" d="M193.583,209.305c0,0.458-10.843,2.761-11.918,3.035c-6.958,1.772-8.484,2.175-12.161,3.097
		c-7.664,1.922-11.496,2.883-12.577,3.096c-4.263,0.838-8.42,2.161-12.679,3.019c-1.406,0.283-4.261,0.839-5.736,3.119
		c-0.404,0.626-0.624,1.256-0.906,2.616c-0.642,3.103-0.673,5.5-0.723,7.72c-0.011,0.471-0.034,1.437,0.019,9.688
		c0.013,2.014,0.042,3.576,1.006,4.126c0.66,0.376,1.489,0.122,3.12-0.402c1.776-0.571,3.186-1.324,3.622-1.61
		c2.418-1.586,4.579-8.283,3.22-16.905c0.009-0.859,0.179-1.974,0.906-2.918c0.618-0.802,1.394-1.165,1.711-1.308
		c3.461-1.568,23.081-5.121,31.998-8.855C185.312,215.639,189.324,213.49,193.583,209.305z"/>
	<path style="fill:#FA402A;" d="M144.863,223.339c-2.407,2.486-1.907,6.716-1.56,12.003c0.584,8.903,0.054,10.45,1.619,11.274
		c1.606,0.846,3.316-0.176,9.563-2.015c3.424-1.008,6.96-1.692,10.419-2.603c5.952-1.568,35.518-8.435,40.722-9.671
		c0.787-0.187,1.613-0.393,2.189-0.899c0.832-0.731,0.923-1.871,0.963-2.905c0.142-3.633,0.284-7.265,0.426-10.898
		c0.131-3.361,0.262-6.733-0.101-10.081c-0.075-0.696-0.206-1.453-0.789-1.929c-0.987-0.807-2.794-0.294-3.401-0.137
		c-8.183,2.106-12.274,3.16-53.29,14.089c-0.574,0.153-2.579,0.653-4.681,2.058C146.943,221.624,145.754,222.418,144.863,223.339z"
		/>
	<g>
		<path style="fill:#2E18E8;" d="M208.997,222.944l-65.51,15.651c0.082,1.706,0.126,3.037,0.175,4.075l65.157-15.169
			C208.879,225.982,208.938,224.463,208.997,222.944z"/>
		<path style="fill:#2E18E8;" d="M143.012,230.008l66.322-17.06c0.011-1.451-0.036-2.901-0.15-4.347l-65.792,17.469
			C143.086,227.224,142.995,228.544,143.012,230.008z"/>
		<path style="fill:#2E18E8;" d="M144.922,246.616c1.606,0.846,3.316-0.176,9.563-2.015c3.424-1.008,6.96-1.692,10.419-2.603
			c5.952-1.568,35.518-8.435,40.722-9.671c0.787-0.187,1.613-0.393,2.189-0.899c0.421-0.37,0.651-0.844,0.782-1.356l-64.699,15.062
			C144.07,245.924,144.359,246.32,144.922,246.616z"/>
		<path style="fill:#2E18E8;" d="M143.302,235.342c0.018,0.269,0.031,0.511,0.047,0.767l65.747-15.707
			c0.037-0.925,0.073-1.851,0.109-2.776c0.028-0.714,0.054-1.43,0.077-2.145l-66.169,17.021
			C143.168,233.409,143.238,234.357,143.302,235.342z"/>
		<path style="fill:#2E18E8;" d="M208.458,205.776c-0.049-0.052-0.084-0.113-0.143-0.16c-0.987-0.807-2.794-0.294-3.401-0.138
			c-8.183,2.106-12.273,3.16-53.29,14.089c-0.574,0.153-2.579,0.653-4.681,2.058c0,0-0.456,0.305-1.014,0.754L208.458,205.776z"/>
	</g>
	<path style="fill:#4248F0;" d="M231.065,307.017c-0.304,1.031-0.053,2.381-0.063,3.399c-0.008,0.877,0,1.755,0,2.632
		c0,2.105,0,4.209,0,6.314c0,3.697,0,7.394,0,11.091c0,0.508,0.045,1.04,0,1.547c0,0.001-0.499,5.583,7,4l1-32
		c-2.19,0.078-6.604,0.367-7.765,2.586C231.166,306.722,231.11,306.866,231.065,307.017z"/>
	<path style="fill:#2E18E8;" d="M257.003,335l-19,1c0,0-3-0.625-3-6s0-21,0-21s-0.75-4.625,4-5s18-2,18-2s5.125-0.875,5,5s0,24,0,24
		S261.253,334.625,257.003,335z"/>
	<path style="fill:#4248F0;" d="M231.153,258.735c-0.304,1.031-0.053,2.381-0.063,3.399c-0.008,0.877,0,1.755,0,2.632
		c0,2.105,0,4.209,0,6.314c0,3.697,0,7.394,0,11.091c0,0.508,0.045,1.04,0,1.547c0,0.001-0.499,5.583,7,4l1-32
		c-2.19,0.078-6.604,0.367-7.765,2.586C231.254,258.439,231.198,258.583,231.153,258.735z"/>
	<path style="fill:#2E18E8;" d="M257.091,286.717l-19,1c0,0-3-0.625-3-6s0-21,0-21s-0.75-4.625,4-5c4.75-0.375,18-2,18-2
		s5.125-0.875,5,5c-0.125,5.875,0,24,0,24S261.341,286.342,257.091,286.717z"/>
	<path style="fill:#1E1F23;" d="M111.003,189l171-63c0,0,6.5-2.833,11,3c4.5,5.833,78,102,78,102s-8.25,1-11-2s-71-92-71-92
		s-4.625-3.625-7-2s-163,59-163,59S110.836,192.167,111.003,189z"/>
	<path style="fill:#4248F0;" d="M333.003,256c0,0,8.875,1,9,4s0,5,0,5v17c0.03,0.219,0.467,3.686-1.583,5.167
		c-1.063,0.767-2.604,0.865-3.417,0.917c-0.863,0.055-1.707-0.01-2-0.083L333.003,256L333.003,256z"/>
	<path style="fill:#2E18E8;" d="M312.003,258c0,0-0.136-2.574,1.489-3.633c0.857-0.559,1.833-0.453,2.511-0.367
		c5.092,0.648,7.638,0.972,10.667,1.417c1.419,0.208,2.873,0.38,5.25,0.833c2.724,0.519,3.541,0.813,4.251,1.425
		c1.489,1.282,1.717,3.286,1.833,4.325c0.5,4.5,0,23,0,23s-0.5,3.75-9,3s-13-2-13-2s-3.75-1.25-4-7S312.003,258,312.003,258z"/>
	<path style="fill:#4248F0;" d="M380.114,262.836c0,0,8.875,0.971,9,3.883c0.125,2.912,0,4.854,0,4.854v16.503
		c0.03,0.212,0.467,3.578-1.583,5.015c-1.063,0.745-2.604,0.84-3.417,0.89c-0.863,0.053-1.707-0.01-2-0.081L380.114,262.836
		L380.114,262.836z"/>
	<path style="fill:#2E18E8;" d="M359.114,264.777c0,0-0.136-2.499,1.489-3.527c0.857-0.543,1.833-0.44,2.511-0.356
		c5.092,0.629,7.638,0.943,10.667,1.375c1.419,0.202,2.873,0.369,5.25,0.809c2.724,0.504,3.541,0.789,4.251,1.383
		c1.489,1.245,1.717,3.19,1.833,4.199c0.5,4.368,0,22.327,0,22.327s-0.5,3.64-9,2.912s-13-1.941-13-1.941s-3.75-1.213-4-6.795
		C358.864,279.581,359.114,264.777,359.114,264.777z"/>
	<path style="fill:#4248F0;" d="M421.015,269.775c0,0,7.993,0.941,8.105,3.766c0.113,2.824,0,4.707,0,4.707v16.005
		c0.027,0.206,0.42,3.47-1.426,4.864c-0.957,0.722-2.345,0.814-3.077,0.863c-0.777,0.052-1.537-0.01-1.801-0.078L421.015,269.775
		L421.015,269.775z"/>
	<path style="fill:#2E18E8;" d="M402.103,271.658c0,0-0.122-2.423,1.341-3.421c0.772-0.526,1.65-0.427,2.261-0.345
		c4.585,0.61,6.878,0.915,9.606,1.334c1.278,0.196,2.587,0.358,4.728,0.785c2.453,0.489,3.188,0.765,3.828,1.341
		c1.341,1.207,1.546,3.093,1.65,4.072c0.45,4.237,0,21.654,0,21.654s-0.45,3.531-8.105,2.824
		c-7.655-0.706-11.707-1.883-11.707-1.883s-3.377-1.177-3.602-6.59C401.878,286.016,402.103,271.658,402.103,271.658z"/>
	<path style="fill:#4248F0;" d="M456.915,275.614c0,0,7.11,0.864,7.21,3.454c0.1,2.591,0,4.318,0,4.318v14.68
		c0.024,0.189,0.374,3.183-1.269,4.462c-0.851,0.663-2.086,0.747-2.737,0.792c-0.691,0.047-1.368-0.009-1.602-0.072L456.915,275.614
		L456.915,275.614z"/>
	<path style="fill:#2E18E8;" d="M440.092,277.341c0,0-0.109-2.223,1.193-3.138c0.687-0.483,1.468-0.391,2.011-0.317
		c4.079,0.559,6.119,0.839,8.546,1.223c1.137,0.18,2.301,0.328,4.206,0.72c2.182,0.448,2.836,0.702,3.406,1.23
		c1.193,1.107,1.375,2.837,1.468,3.735c0.401,3.886,0,19.862,0,19.862s-0.401,3.238-7.21,2.591s-10.415-1.727-10.415-1.727
		s-3.004-1.079-3.204-6.045S440.092,277.341,440.092,277.341z"/>
	<path style="fill:#4248F0;" d="M330.003,304.941v-1.941c0,0,11-0.647,11,4.853c0,5.499,0,22.317,0,22.324
		c0,1.189-0.004,2.348-0.524,3.452c-0.666,1.415-2.03,1.988-3.523,2.159c-1.079,0.124-2.184,0.17-3.266,0.25
		c-0.832,0.062-1.865,0.171-2.687-0.037C326.576,334.878,329.788,306.764,330.003,304.941z"/>
	<path style="fill:#2E18E8;" d="M311.84,308.165c0.185-1.77,0.667-3.469,1.945-4.677c1.119-1.059,2.678-1.516,4.197-1.565
		c3.179-0.104,6.574,0.577,9.773,0.784c1.685,0.109,3.592-0.03,5.248,0.326c0,0,4,0.858,4,6.18c0,5.307,0,21.539,0,21.631
		c0,2.085-0.987,3.698-2.954,4.542c-2.251,0.966-4.937,0.525-7.311,0.528c-2.605,0.003-5.21,0.059-7.813,0.161
		c-1.665,0.065-4.109,0.475-5.307-1.015c-2.599-3.219-2.067-8.068-1.857-11.934c0.199-3.652-0.086-7.306-0.043-10.959
		C311.732,310.918,311.698,309.521,311.84,308.165z"/>
	<path style="fill:#4248F0;" d="M377.81,307.94v-1.884c0,0,10.626-0.628,10.626,4.711c0,5.338,0,21.665,0,21.671
		c0,1.154-0.004,2.279-0.506,3.352c-0.644,1.374-1.961,1.93-3.403,2.096c-1.042,0.12-2.109,0.165-3.155,0.242
		c-0.804,0.06-1.801,0.166-2.596-0.036C374.5,337.002,377.603,309.71,377.81,307.94z"/>
	<path style="fill:#2E18E8;" d="M360.264,311.071c0.178-1.718,0.645-3.367,1.879-4.541c1.081-1.028,2.587-1.471,4.054-1.52
		c3.071-0.101,6.35,0.56,9.441,0.761c1.627,0.106,3.47-0.029,5.07,0.316c0,0,3.864,0.833,3.864,6c0,5.152,0,20.909,0,20.999
		c0,2.024-0.953,3.59-2.853,4.409c-2.175,0.937-4.769,0.509-7.062,0.512c-2.517,0.003-5.033,0.058-7.548,0.157
		c-1.609,0.063-3.969,0.461-5.127-0.985c-2.511-3.125-1.997-7.832-1.794-11.585c0.192-3.545-0.083-7.092-0.042-10.639
		C360.16,313.743,360.127,312.387,360.264,311.071z"/>
	<path style="fill:#4248F0;" d="M419.75,311.81v-1.769c0,0,10.253-0.59,10.253,4.423c0,5.012,0,20.342,0,20.348
		c0,1.083-0.004,2.14-0.488,3.147c-0.621,1.29-1.892,1.812-3.284,1.968c-1.006,0.113-2.035,0.155-3.044,0.228
		c-0.776,0.056-1.738,0.156-2.504-0.034C416.557,339.097,419.55,313.472,419.75,311.81z"/>
	<path style="fill:#2E18E8;" d="M403.244,314.7c0.165-1.613,0.596-3.162,1.736-4.263c0.999-0.965,2.39-1.382,3.746-1.427
		c2.838-0.095,5.868,0.525,8.725,0.715c1.504,0.1,3.207-0.027,4.685,0.297c0,0,3.571,0.782,3.571,5.633c0,4.837,0,19.633,0,19.717
		c0,1.901-0.881,3.371-2.637,4.14c-2.01,0.88-4.408,0.478-6.527,0.481c-2.326,0.003-4.651,0.054-6.975,0.147
		c-1.487,0.059-3.668,0.433-4.738-0.925c-2.32-2.934-1.846-7.354-1.658-10.877c0.177-3.329-0.077-6.659-0.038-9.989
		C403.148,317.209,403.118,315.935,403.244,314.7z"/>
	<path style="fill:#4248F0;" d="M455.402,314.63v-1.657c0,0,8.601-0.552,8.601,4.141c0,4.693,0,19.044,0,19.05
		c0,1.014-0.003,2.003-0.41,2.946c-0.521,1.208-1.587,1.696-2.754,1.842c-0.844,0.105-1.707,0.145-2.554,0.213
		c-0.651,0.053-1.458,0.146-2.101-0.032C452.723,340.177,455.234,316.186,455.402,314.63z"/>
	<path style="fill:#2E18E8;" d="M440.226,317.336c0.152-1.51,0.551-2.96,1.608-3.991c0.925-0.904,2.213-1.293,3.469-1.336
		c2.628-0.089,5.434,0.492,8.079,0.669c1.392,0.093,2.969-0.025,4.338,0.278c0,0,3.306,0.733,3.306,5.274c0,4.529,0,18.38,0,18.459
		c0,1.78-0.815,3.156-2.441,3.876c-1.861,0.824-4.081,0.448-6.043,0.45c-1.768,0.002-1.191,0.063-3.872,0.057
		c-3.89-0.009-5.085-0.209-6.167-0.989c-0.71-0.512-1.105-1.081-1.333-1.417c-0.961-1.411-1.083-2.805-1.009-8.563
		c0.032-2.477,0.067-2.218,0.052-3.438c-0.024-1.971-0.11-3.943-0.088-5.914C440.137,319.685,440.109,318.493,440.226,317.336z"/>
	<path style="fill:#1E1F23;" d="M364.003,162.138v-11c0,0,0.5-4,5,3c4.675,7.272,9.914,14.224,14.917,21.271
		c8.608,12.126,17.249,24.229,25.895,36.328c6.76,9.459,13.526,18.914,20.297,28.366c0.923,1.288,2.06,2.599,2.759,4.006
		c0.462,0.93-6.744,0.476-7.471,0.133c-2.885-1.362-4.761-4.525-6.726-6.919c-2.584-3.15-5.141-6.323-7.67-9.518
		c-13.719-17.327-23.637-31.527-31.639-43.023C375.535,179.28,370.228,171.552,364.003,162.138z"/>
	<path style="fill:#1E1F23;" d="M426.984,183.191v-9.235c0,0,0.399-3.358,3.995,2.519c3.735,6.105,7.921,11.942,11.917,17.858
		c6.877,10.181,13.78,20.342,20.688,30.5c5.401,7.942,10.806,15.88,16.215,23.815c0.737,1.082,1.645,2.182,2.204,3.364
		c0.369,0.781-5.388,0.4-5.969,0.112c-2.305-1.144-3.804-3.799-5.373-5.809c-2.065-2.645-4.107-5.309-6.128-7.991
		c-10.961-14.548-18.884-26.469-25.277-36.122C436.197,197.583,431.957,191.095,426.984,183.191z"/>
</g>
</svg>
